ply
format ascii 1.0
comment VCGLIB generated
comment TextureFile Long_blue_Jet_Flame.bmp
element vertex 19
property float x
property float y
property float z
property float nx
property float ny
property float nz
property uchar red
property uchar green
property uchar blue
property uchar alpha
property float texture_u
property float texture_v
element face 24
property list uchar int vertex_indices
end_header
1.186142e-09 4.532617e-11 0.03407419 0 -5.601035e-10 1 150 150 150 255 1.186142e-09 4.532617e-11
0.258819 0 0 0.2004802 0 0.9796977 150 150 150 255 0.258819 0
0.1294095 0.2241439 0 0.1002401 0.173621 0.9796977 150 150 150 255 0.1294095 0.2241439
-0.1294095 0.2241439 0 -0.1002401 0.173621 0.9796977 150 150 150 255 -0.1294095 0.2241439
-0.258819 3.169619e-17 0 -0.2004802 0 0.9796977 150 150 150 255 -0.258819 3.169619e-17
-0.1294095 -0.2241439 0 -0.1002401 -0.173621 0.9796977 150 150 150 255 -0.1294095 -0.2241439
0.1294095 -0.2241439 0 0.1002401 -0.173621 0.9796977 150 150 150 255 0.1294095 -0.2241439
0.1414213 -4.591166e-11 0.02402365 0.1392257 5.564325e-10 0.9902607 150 150 150 255 0.1414213 -4.591166e-11
0.2241439 0.1294095 0 0.1646019 0.09503295 0.9817713 150 150 150 255 0.2241439 0.1294095
0.07071067 0.1224745 0.02402365 0.06961286 0.120573 0.9902607 150 150 150 255 0.07071067 0.1224745
0 0.258819 0 1.1506e-09 0.1900659 0.9817713 150 150 150 255 0 0.258819
-0.07071067 0.1224745 0.02402365 -0.06961287 0.120573 0.9902607 186 186 186 255 -0.07071067 0.1224745
-0.2241439 0.1294095 0 -0.1646019 0.09503295 0.9817713 205 205 205 255 -0.2241439 0.1294095
-0.1414213 -4.591166e-11 0.02402365 -0.1392257 5.564325e-10 0.9902607 150 150 150 255 -0.1414213 -4.591166e-11
-0.2241439 -0.1294095 0 -0.1646019 -0.09503295 0.9817713 150 150 150 255 -0.2241439 -0.1294095
-0.07071067 -0.1224745 0.02402365 -0.06961286 -0.120573 0.9902607 150 150 150 255 -0.07071067 -0.1224745
0 -0.258819 0 -1.1506e-09 -0.1900659 0.9817713 150 150 150 255 0 -0.258819
0.07071067 -0.1224745 0.02402365 0.06961287 -0.120573 0.9902607 150 150 150 255 0.07071067 -0.1224745
0.2241439 -0.1294095 0 0.1646019 -0.09503295 0.9817713 150 150 150 255 0.2241439 -0.1294095
3 7 8 9 
3 9 10 11 
3 11 12 13 
3 13 14 15 
3 15 16 17 
3 17 18 7 
3 0 7 9 
3 7 1 8 
3 9 8 2 
3 0 9 11 
3 9 2 10 
3 11 10 3 
3 0 11 13 
3 11 3 12 
3 13 12 4 
3 0 13 15 
3 13 4 14 
3 15 14 5 
3 0 15 17 
3 15 5 16 
3 17 16 6 
3 0 17 7 
3 17 6 18 
3 7 18 1 
