ply
format ascii 1.0
comment VCGLIB generated
element vertex 145
property float x
property float y
property float z
property float nx
property float ny
property float nz
property uchar red
property uchar green
property uchar blue
property uchar alpha
property float texture_u
property float texture_v
element face 286
property list uchar int vertex_indices
end_header
0.7394974 2.4798 1.615302 0.304916 0.7621233 -0.5711343 214 214 214 255 1 0.5
0.7439969 3.1048 2.465802 0.2861216 0.805139 -0.5195052 255 255 255 255 1 0.5
1.404697 2.740499 2.621902 0.8254475 0.4953842 -0.2706124 255 255 255 255 1 0.5
1.472197 2.0591 1.843502 0.8512292 0.3873745 -0.354048 255 255 255 255 1 0.5
1.725897 1.056 3.214602 0.9683187 0.1220165 0.2178783 159 159 159 255 1 0.5
1.526197 2.126399 4.389902 0.9809231 0.1149363 0.1567785 228 228 228 255 1 0.5
1.403497 -0.2542009 4.736901 0.7844416 -0.345603 0.5149853 255 255 255 255 1 0.5
1.441097 -0.9760005 3.450002 0.875731 -0.4425958 0.1928843 255 255 255 255 1 0.5
1.159297 -2.0664 1.223801 0.7951838 -0.596655 0.1081002 150 150 150 255 1 0.5
0.7793972 -1.522802 3.699702 0.3880877 -0.8241534 0.4125036 255 255 255 255 1 0.5
9.750202e-05 3.434999 7.125202 0 0.1152098 0.9933412 150 150 150 255 1 0.5
0.529197 3.527999 6.028302 0.6880917 0.5995251 0.4087781 150 150 150 255 1 0.5
0.3155968 3.646899 6.041802 0.3430983 0.884572 0.3159367 174 174 174 255 1 0.5
0.6592972 2.954998 5.714803 0.696081 -0.2155267 0.68485 150 150 150 255 1 0.5
0.6382973 3.343499 5.970302 0.8733093 0.03836292 0.4856535 150 150 150 255 1 0.5
1.853097 0.999599 2.982902 0.960034 0.1765524 0.217173 253 253 253 255 1 0.5
0.3470967 2.772998 5.795002 0.2548943 -0.5032567 0.8256886 150 150 150 255 1 0.5
0.6221974 1.902898 5.608802 0.1299813 -0.1301645 0.9829355 255 255 255 255 1 0.5
1.120497 2.123898 5.524302 0.6549729 0.03521871 0.7548313 255 255 255 255 1 0.5
1.186797 3.298399 4.992502 0.8959313 0.2701591 0.352592 255 255 255 255 1 0.5
0.8096974 3.667999 5.324202 0.6779906 0.6597402 0.3241475 150 150 150 255 1 0.5
0.7179968 0.5671992 5.447102 0.2292 -0.2829145 0.9313575 192 192 192 255 1 0.5
1.330697 1.075599 5.273702 0.7699724 -0.1084661 0.6287906 255 255 255 255 1 0.5
0.7715971 -0.6448007 4.892901 0.2673492 -0.6048328 0.7501345 228 228 228 255 1 0.5
1.254297 3.348699 3.649102 0.8160254 0.5496525 -0.1788426 227 227 227 255 1 0.5
1.078798 3.759399 4.466002 0.6947693 0.718361 0.03540188 255 255 255 255 1 0.5
1.328697 3.088599 4.528502 0.9459566 0.3108936 -0.09225743 255 255 255 255 1 0.5
1.295697 2.944999 4.904902 0.78807 -0.2697914 0.5533159 255 255 255 255 1 0.5
1.337497 2.841299 4.697902 0.9825991 -0.07120186 0.1715494 255 255 255 255 1 0.5
9.750202e-05 -1.627901 3.699702 0.001617046 -0.8920515 0.4519309 150 150 150 255 1 0.5
0.5164969 0.2980013 -1.436398 0.4774176 0.7290826 -0.4904191 150 150 150 255 1 0.5
9.750202e-05 2.5338 1.629802 -0.01028514 0.8161682 -0.5777228 150 150 150 255 1 0.5
9.750202e-05 2.759998 5.795002 -0.00183104 -0.6056535 0.7957265 150 150 150 255 1 0.5
9.750202e-05 3.948599 5.340802 0 0.9736013 0.2282553 150 150 150 255 1 0.5
9.750202e-05 3.718999 6.041802 0 0.9589114 0.2837058 236 236 236 255 1 0.5
0.6600974 -2.2878 1.223801 0.3008255 -0.926037 0.2279463 150 150 150 255 1 0.5
0.6075976 3.971301 4.432102 0.2908484 0.9555285 -0.04870912 150 150 150 255 1 0.5
0.5260975 3.861399 5.340802 0.3677492 0.8955083 0.25065 150 150 150 255 1 0.5
0.676697 3.682099 3.442202 0.3333946 0.8659907 -0.3727039 248 248 248 255 1 0.5
-0.7394025 2.4798 1.615302 -0.297014 0.7743061 -0.558778 150 150 150 255 1 0.5
-1.472001 2.0591 1.843502 -0.8512391 0.3873489 -0.3540521 150 150 150 255 1 0.5
-1.404601 2.740499 2.621902 -0.8132076 0.5084454 -0.283155 150 150 150 255 1 0.5
-0.6766031 3.682099 3.442202 -0.3180705 0.8629588 -0.392598 150 150 150 255 1 0.5
-1.403302 -0.2542009 4.736901 -0.7844416 -0.345603 0.5149853 150 150 150 255 1 0.5
-1.526002 2.126399 4.389902 -0.980929 0.1149334 0.1567435 150 150 150 255 1 0.5
-1.725801 1.056 3.214602 -0.9683124 0.1220157 0.2179069 150 150 150 255 1 0.5
-1.440902 -0.9760005 3.450002 -0.8757139 -0.4426181 0.1929105 150 150 150 255 1 0.5
-0.7792032 -1.522802 3.699702 -0.3893361 -0.8233216 0.4129878 150 150 150 255 1 0.5
-1.159101 -2.0665 1.223801 -0.7740671 -0.62089 0.1237571 150 150 150 255 1 0.5
-0.3154027 3.646899 6.041802 -0.3430983 0.884572 0.3159367 255 255 255 255 1 0.5
-0.5290029 3.527999 6.028302 -0.6880917 0.5995251 0.4087781 150 150 150 255 1 0.5
-0.6381032 3.343499 5.970302 -0.8733093 0.03836292 0.4856535 150 150 150 255 1 0.5
-0.6591032 2.954998 5.714803 -0.6965705 -0.2140312 0.6848213 150 150 150 255 1 0.5
-1.853001 0.999599 2.982902 -0.960034 0.1765524 0.217173 150 150 150 255 1 0.5
-1.120301 2.123898 5.524302 -0.6559455 0.03549353 0.7539734 199 199 199 255 1 0.5
-0.7179029 0.5671992 5.447102 -0.2304809 -0.2868803 0.929827 150 150 150 255 1 0.5
-0.3470027 2.772998 5.795002 -0.2534949 -0.4945677 0.8313503 150 150 150 255 1 0.5
-1.186601 3.298399 4.992502 -0.895929 0.2701275 0.3526221 150 150 150 255 1 0.5
-0.8095033 3.667999 5.324202 -0.6779838 0.6597336 0.3241753 150 150 150 255 1 0.5
-1.330501 1.075599 5.273702 -0.77 -0.1084657 0.6287569 150 150 150 255 1 0.5
-0.7715032 -0.6448007 4.892901 -0.267378 -0.6048277 0.7501283 150 150 150 255 1 0.5
-1.254102 3.348699 3.649102 -0.8184327 0.5487961 -0.1702667 150 150 150 255 1 0.5
-1.328501 3.088599 4.528502 -0.9459479 0.3109009 -0.09232061 150 150 150 255 1 0.5
-1.078702 3.759399 4.466002 -0.6947995 0.7183302 0.03543289 150 150 150 255 1 0.5
-1.295602 2.944999 4.904902 -0.7880381 -0.2697601 0.5533764 150 150 150 255 1 0.5
-1.337401 2.841299 4.697902 -0.9826405 -0.07114169 0.1713374 150 150 150 255 1 0.5
9.750202e-05 -2.7231 0.2003003 -0.001892009 -0.998204 -0.05987743 150 150 150 255 1 0.5
-0.516403 0.2980013 -1.436398 -0.4773813 0.7294389 -0.4899246 150 150 150 255 1 0.5
-0.6074026 3.971301 4.432102 -0.2908127 0.955541 -0.04867718 150 150 150 255 1 0.5
-0.5259025 3.861399 5.340802 -0.3677492 0.8955083 0.25065 150 150 150 255 1 0.5
-1.303201 -0.1693997 -0.2117984 -0.9409413 0.217817 -0.259201 150 150 150 255 1 0.5
-1.625201 0.2243991 1.614302 -0.18513 0.8968106 -0.4018179 150 150 150 255 1 0.5
-4.680802 2.5153 -0.01909804 0.1954428 -0.2152799 -0.956795 150 150 150 255 1 0.5
-1.628502 0.02389908 1.657202 -0.8798429 -0.4736915 0.03863703 150 150 150 255 1 0.5
4.680997 2.5153 -0.01909804 -0.1954117 -0.2153098 -0.9567946 150 150 150 255 1 0.5
1.303397 -0.1693997 -0.2117984 0.9409352 0.2178455 -0.2591994 150 150 150 255 1 0.5
1.625397 0.2243991 1.614302 0.1850393 0.896843 -0.4017875 150 150 150 255 1 0.5
1.628697 0.02389908 1.657202 0.8798409 -0.4736904 0.03869795 150 150 150 255 1 0.5
-0.2415025 -0.9411981 -3.798098 -0.6946722 0.6177042 -0.3686084 150 150 150 255 1 0.5
-0.5489032 -1.3221 -2.638798 -0.8958867 -0.2465633 -0.3695856 150 150 150 255 1 0.5
0.5490973 -1.3221 -2.638798 0.8958867 -0.2465633 -0.3695856 150 150 150 255 1 0.5
0.2416975 -0.9411981 -3.798098 0.6946722 0.6177042 -0.3686084 150 150 150 255 1 0.5
0.968797 -2.755 0.3561003 0.8374919 -0.4053936 0.3664198 150 150 150 255 1 0.5
0.2237971 -2.738 0.2049003 -0.3586298 -0.931321 0.06344911 150 150 150 255 1 0.5
0.5444968 -4.5256 1.1137 -0.4267236 0.8997758 -0.09116181 150 150 150 255 1 0.5
0.8119967 -2.5123 -0.4051997 0.3641805 -0.7278433 -0.581048 150 150 150 255 1 0.5
0.6521971 -4.524 1.1136 0.365501 0.9269362 -0.08484346 150 150 150 255 1 0.5
0.4282973 -1.7029 -1.3487 0.06705098 -0.971067 -0.229201 150 150 150 255 1 0.5
9.750202e-05 -1.8368 -1.217999 0 -0.9399663 -0.3412676 150 150 150 255 1 0.5
9.750202e-05 -2.064798 -3.130099 -0.001770032 -0.6213684 -0.7835165 150 150 150 255 1 0.5
-0.652003 -4.524 1.1136 -0.3654636 0.926951 -0.08484198 150 150 150 255 1 0.5
-0.8118026 -2.5123 -0.4051997 -0.3640605 -0.7278771 -0.581081 150 150 150 255 1 0.5
-0.223603 -2.738 0.2049003 0.3586306 -0.9313229 0.06341825 150 150 150 255 1 0.5
-0.968703 -2.755 0.3561003 -0.8375083 -0.4054475 0.3663224 150 150 150 255 1 0.5
9.750202e-05 -2.591 -0.2005997 0 -0.9422704 -0.3348531 150 150 150 255 1 0.5
0.856497 -1.7029 -1.479499 0.7400994 -0.6045929 -0.2944832 150 150 150 255 1 0.5
-0.2413032 -1.455699 -2.882298 -0.7116233 -0.3896117 -0.5846323 150 150 150 255 1 0.5
-0.2415025 -1.511498 -4.041799 -0.9998134 -0.01562543 -0.01135332 150 150 150 255 1 0.5
0.2416975 -1.511498 -4.041799 0.9998134 -0.01562543 -0.01135332 150 150 150 255 1 0.5
0.2414973 -1.455699 -2.882298 0.6261896 -0.4154551 -0.6597604 150 150 150 255 1 0.5
-0.856303 -1.7029 -1.479499 -0.7400994 -0.6045929 -0.2944832 150 150 150 255 1 0.5
-4.808902 2.5559 1.125302 -0.6138342 -0.7712833 0.1683141 150 150 150 255 1 0.5
-4.985702 3.1221 2.080802 -0.2569996 0.4154239 0.8725676 150 150 150 255 1 0.5
-8.3463 4.8021 -1.337198 -0.847793 -0.401175 -0.346851 150 150 150 255 1 0.5
-4.497302 2.6898 1.089002 0.5995765 0.7843076 -0.1592785 255 255 255 255 1 0.5
4.985797 3.1221 2.080802 0.2570034 0.41546 0.8725493 173 173 173 255 1 0.5
4.497497 2.6898 1.089002 -0.5995877 0.7842922 -0.1593125 150 150 150 255 1 0.5
8.346395 4.8021 -1.337198 0.8475257 -0.4016056 -0.3470061 150 150 150 255 1 0.5
4.808997 2.5559 1.125302 0.6138342 -0.7712833 0.1683141 150 150 150 255 1 0.5
-8.3457 4.897501 -1.332898 -0.6574671 0.7395023 -0.1444765 150 150 150 255 1 0.5
8.345895 4.897501 -1.332898 0.6577885 0.7392157 -0.1444801 150 150 150 255 1 0.5
9.750202e-05 3.7732 3.442202 -0.00921726 0.9116141 -0.4109437 255 255 255 255 1 0.5
0.08969711 -2.4596 -0.2005996 0.3886897 -0.8242863 -0.4116703 150 150 150 255 1 0.5
-0.5443027 -4.5256 1.1137 0.4267236 0.8997758 -0.09116181 150 150 150 255 1 0.5
0.2270968 -2.103298 -6.885599 0.5394642 -0.2186118 -0.8131343 150 150 150 255 1 0.5
9.750202e-05 -1.575599 -2.882298 -0.1477432 -0.1901651 -0.9705716 150 150 150 255 1 0.5
-0.2269027 -2.281798 -6.9676 -0.6963919 0.1648661 -0.6984681 150 150 150 255 1 0.5
-0.2269027 -2.103298 -6.885599 -0.5394642 -0.2186118 -0.8131343 150 150 150 255 1 0.5
9.750202e-05 -2.423398 -7.1252 0 -0.3518287 -0.9360644 150 150 150 255 1 0.5
0.2270968 -2.281798 -6.9676 0.6996488 0.167092 -0.6946739 150 150 150 255 1 0.5
9.750202e-05 4.067699 4.432102 0 0.9970759 -0.07641831 150 150 150 255 1 0.5
-1.124701 -4.7937 1.8559 -0.8412555 -0.1122188 0.5288631 150 150 150 255 1 0.5
-0.4573028 -4.7952 0.8473 0.8770128 -0.4671786 -0.1122174 150 150 150 255 1 0.5
-0.1271026 -4.8079 1.8896 0.8316256 -0.1412137 0.5370824 150 150 150 255 1 0.5
-0.5905025 -4.7926 2.0996 -0.0002140002 -0.08725224 0.9961863 150 150 150 255 1 0.5
1.124897 -4.7937 1.8559 0.8412555 -0.1122188 0.5288631 150 150 150 255 1 0.5
0.5906975 -4.7926 2.0996 0.0002140002 -0.08725224 0.9961863 150 150 150 255 1 0.5
0.1272967 -4.8079 1.8896 -0.8316256 -0.1412137 0.5370824 150 150 150 255 1 0.5
0.4574969 -4.7952 0.8473 -0.8770022 -0.4672199 -0.1121279 150 150 150 255 1 0.5
-0.4281032 -1.7029 -1.3487 -0.06705098 -0.971067 -0.229201 150 150 150 255 1 0.5
-0.08950306 -2.4596 -0.2005996 -0.3886897 -0.8242863 -0.4116703 150 150 150 255 1 0.5
0.05979751 -1.455699 -2.882298 0.4232066 -0.6213668 -0.6593934 150 150 150 255 1 0.5
-1.408002 3.036299 4.886102 -0.8784027 -0.1301339 0.4598629 150 150 150 255 1 0.5
-1.428702 3.096399 4.635002 -0.8488913 0.3736467 -0.3738605 150 150 150 255 1 0.5
1.428897 3.096399 4.635002 0.8490127 0.3735244 -0.3737072 255 255 255 255 1 0.5
1.408098 3.036299 4.886102 0.8783538 -0.1302266 0.4599302 255 255 255 255 1 0.5
0.5697968 -4.8975 -0.017 -0.06051871 -0.177376 -0.9822806 150 150 150 255 1 0.5
-0.5697029 -4.8975 -0.017 0.06045793 -0.1773766 -0.9822843 150 150 150 255 1 0.5
-1.323802 3.185199 4.932203 -0.1556168 0.9015022 0.4038284 150 150 150 255 1 0.5
-1.179601 3.068299 5.054202 -0.7704882 0.1078245 0.628269 150 150 150 255 1 0.5
1.179797 3.068299 5.054202 0.7705503 0.1075496 0.6282399 255 255 255 255 1 0.5
1.323898 3.185199 4.932203 0.1553437 0.9015744 0.4037723 255 255 255 255 1 0.5
9.750202e-05 -1.634498 -4.041799 0 0.06509712 -0.997879 150 150 150 255 1 0.5
-8.205501 4.8757 -1.364197 0.4190001 0.6874474 -0.5931737 150 150 150 255 1 0.5
8.205594 4.8757 -1.364197 -0.4190287 0.687537 -0.5930496 150 150 150 255 1 0.5
3 0 1 2 
3 2 3 0 
3 4 5 6 
3 6 7 4 
3 8 7 9 
3 10 11 12 
3 10 13 14 
3 15 3 4 
3 13 16 17 
3 17 18 13 
3 11 14 19 
3 19 20 11 
3 21 22 18 
3 23 6 22 
3 2 24 5 
3 24 25 26 
3 25 20 19 
3 13 18 27 
3 18 22 28 
3 29 9 23 
3 30 31 0 
3 32 16 10 
3 33 34 12 
3 1 0 31 
3 35 9 29 
3 10 12 34 
3 16 32 17 
3 9 7 6 
3 6 23 9 
3 0 3 30 
3 16 13 10 
3 20 25 36 
3 11 20 37 
3 37 12 11 
3 25 24 38 
3 24 2 1 
3 39 40 41 
3 41 42 39 
3 43 44 45 
3 45 46 43 
3 47 46 48 
3 49 50 10 
3 51 52 10 
3 45 40 53 
3 52 54 55 
3 55 56 52 
3 57 51 50 
3 50 58 57 
3 54 59 55 
3 59 43 60 
3 44 61 41 
3 62 63 61 
3 57 58 63 
3 64 54 52 
3 65 59 54 
3 60 47 29 
3 39 31 30 
3 10 56 32 
3 49 34 33 
3 31 39 42 
3 29 47 66 
3 34 49 10 
3 17 32 56 
3 47 60 43 
3 43 46 47 
3 67 40 39 
3 10 52 56 
3 68 63 58 
3 50 49 69 
3 69 58 50 
3 42 61 63 
3 42 41 61 
3 3 2 5 
3 5 4 3 
3 10 14 11 
3 4 7 15 
3 19 14 13 
3 22 6 5 
3 44 41 40 
3 40 45 44 
3 53 46 45 
3 51 57 52 
3 44 43 59 
3 53 40 67 
3 30 3 15 
3 70 71 67 
3 72 70 73 
3 48 46 53 
3 71 70 72 
3 15 7 8 
3 74 75 76 
3 77 75 74 
3 30 76 75 
3 70 78 79 
3 80 81 75 
3 82 83 84 
3 83 85 86 
3 87 88 89 
3 9 35 8 
3 48 73 70 
3 90 91 92 
3 91 90 93 
3 94 88 87 
3 75 77 8 
3 95 80 75 
3 96 78 97 
3 98 81 99 
3 70 79 100 
3 70 100 48 
3 101 102 103 
3 104 102 53 
3 15 105 106 
3 107 105 108 
3 72 101 103 
3 109 102 104 
3 106 105 110 
3 107 108 74 
3 33 69 49 
3 42 111 31 
3 112 95 85 
3 8 95 75 
3 48 66 47 
3 113 92 93 
3 29 23 60 
3 56 55 17 
3 30 67 39 
3 78 81 114 
3 63 62 57 
3 54 64 65 
3 19 26 25 
3 28 27 18 
3 115 96 116 
3 80 95 89 
3 114 117 78 
3 115 118 119 
3 38 36 25 
3 68 120 111 
3 121 122 123 
3 124 90 121 
3 125 86 126 
3 127 128 125 
3 23 21 55 
3 22 21 23 
3 8 77 15 
3 108 105 15 
3 53 102 101 
3 53 73 48 
3 75 81 30 
3 30 81 78 
3 89 100 79 
3 89 96 115 
3 63 68 42 
3 111 42 68 
3 60 55 59 
3 55 60 23 
3 100 129 130 
3 129 100 89 
3 67 78 70 
3 67 30 78 
3 131 99 89 
3 119 99 131 
3 132 133 65 
3 62 61 44 
3 28 134 135 
3 5 24 26 
3 85 82 86 
3 82 85 95 
3 127 84 128 
3 125 136 86 
3 122 113 123 
3 90 137 121 
3 36 37 20 
3 69 33 120 
3 138 139 62 
3 64 132 65 
3 26 140 141 
3 28 135 27 
3 130 92 91 
3 92 66 48 
3 142 117 114 
3 119 118 142 
3 91 100 130 
3 100 91 93 
3 116 97 142 
3 97 116 96 
3 89 95 87 
3 112 87 95 
3 8 66 83 
3 85 83 112 
3 101 73 53 
3 73 101 72 
3 74 108 77 
3 15 77 108 
3 99 119 98 
3 142 98 119 
3 83 82 8 
3 95 8 82 
3 48 93 92 
3 93 48 100 
3 67 71 53 
3 53 71 104 
3 15 76 30 
3 106 76 15 
3 36 38 111 
3 31 111 1 
3 44 59 65 
3 65 62 44 
3 28 22 5 
3 5 26 28 
3 142 97 117 
3 78 117 97 
3 92 130 66 
3 87 112 94 
3 19 13 140 
3 26 19 140 
3 139 57 62 
3 139 52 57 
3 124 121 123 
3 123 113 124 
3 126 84 127 
3 127 125 126 
3 79 78 96 
3 79 96 89 
3 89 99 80 
3 99 81 80 
3 81 98 114 
3 114 98 142 
3 26 134 28 
3 141 134 26 
3 65 133 62 
3 62 133 138 
3 103 143 72 
3 72 143 109 
3 74 144 107 
3 110 144 74 
3 74 106 110 
3 76 106 74 
3 109 104 72 
3 72 104 71 
3 120 68 69 
3 58 69 68 
3 86 84 83 
3 86 84 126 
3 84 86 82 
3 84 86 136 
3 137 90 113 
3 93 90 113 
3 92 113 90 
3 124 113 90 
3 66 112 83 
3 66 94 112 
3 111 120 36 
3 37 36 120 
3 120 33 37 
3 12 37 33 
3 116 118 115 
3 142 118 116 
3 52 139 64 
3 132 64 139 
3 27 140 13 
3 140 27 135 
3 89 88 129 
3 129 88 94 
3 18 17 21 
3 21 17 55 
3 131 89 115 
3 119 131 115 
3 136 125 128 
3 84 136 128 
3 122 121 137 
3 122 137 113 
3 135 141 140 
3 135 134 141 
3 139 138 132 
3 138 133 132 
3 107 110 105 
3 144 110 107 
3 102 109 103 
3 103 109 143 
3 29 66 35 
3 66 8 35 
3 130 94 66 
3 94 130 129 
3 1 38 24 
3 38 1 111 
3 50 51 10 
