ply
format ascii 1.0
comment VCGLIB generated
element vertex 34
property float x
property float y
property float z
property float nx
property float ny
property float nz
property uchar red
property uchar green
property uchar blue
property uchar alpha
property float texture_u
property float texture_v
element face 32
property list uchar int vertex_indices
end_header
-8.5 0 -0.5 -8.742278e-08 1 -4.371138e-08 255 255 255 255 -8.5 0
-7.4375 0 -0.5 -8.742278e-08 1 -4.371138e-08 150 150 150 255 -7.4375 9.288669e-08
-6.375 0 -0.5 -8.742278e-08 1 -4.371138e-08 150 150 150 255 -6.375 1.857734e-07
-5.3125 0 -0.5 -8.742278e-08 1 -4.371138e-08 150 150 150 255 -5.3125 2.786601e-07
-4.25 0 -0.5 -8.742278e-08 1 -4.371138e-08 150 150 150 255 -4.25 3.715467e-07
-3.1875 0 -0.5 -8.742278e-08 1 -4.371138e-08 150 150 150 255 -3.1875 4.644335e-07
-2.125 0 -0.5 -8.742278e-08 1 -4.371138e-08 150 150 150 255 -2.125 5.573202e-07
-1.0625 0 -0.5 -8.742278e-08 1 -4.371138e-08 150 150 150 255 -1.0625 6.502069e-07
-0 0 -0.5 -8.742278e-08 1 -4.371138e-08 150 150 150 255 -9.536743e-07 7.430935e-07
1.0625 0 -0.5 -8.742278e-08 1 -4.371138e-08 243 243 243 255 1.062499 8.359802e-07
2.125 0 -0.5 -8.742278e-08 1 -4.371138e-08 150 150 150 255 2.124999 9.288669e-07
3.1875 0 -0.5 -8.742278e-08 1 -4.371138e-08 150 150 150 255 3.187499 1.021754e-06
4.25 0 -0.5 -8.742278e-08 1 -4.371138e-08 150 150 150 255 4.249999 1.11464e-06
5.3125 0 -0.5 -8.742278e-08 1 -4.371138e-08 150 150 150 255 5.312499 1.207527e-06
6.375 0 -0.5 -8.742278e-08 1 -4.371138e-08 150 150 150 255 6.374999 1.300414e-06
7.4375 0 -0.5 -8.742278e-08 1 -4.371138e-08 150 150 150 255 7.437499 1.3933e-06
8.5 0 -0.5 -8.742278e-08 1 -4.371138e-08 150 150 150 255 8.499998 1.486187e-06
-8.5 0 0.5 -8.742278e-08 1 -4.371138e-08 150 150 150 255 -8.5 4.371139e-08
-7.4375 0 0.5 -8.742278e-08 1 -4.371138e-08 255 255 255 255 -7.4375 1.365981e-07
-6.375 0 0.5 -8.742278e-08 1 -4.371138e-08 150 150 150 255 -6.375 2.294848e-07
-5.3125 0 0.5 -8.742278e-08 1 -4.371138e-08 150 150 150 255 -5.3125 3.223715e-07
-4.25 0 0.5 -8.742278e-08 1 -4.371138e-08 150 150 150 255 -4.25 4.152581e-07
-3.1875 0 0.5 -8.742278e-08 1 -4.371138e-08 150 150 150 255 -3.1875 5.081449e-07
-2.125 0 0.5 -8.742278e-08 1 -4.371138e-08 150 150 150 255 -2.125 6.010316e-07
-1.0625 0 0.5 -8.742278e-08 1 -4.371138e-08 150 150 150 255 -1.0625 6.939183e-07
-0 0 0.5 -8.742278e-08 1 -4.371138e-08 150 150 150 255 -9.536743e-07 7.868049e-07
1.0625 0 0.5 -8.742278e-08 1 -4.371138e-08 255 255 255 255 1.062499 8.796916e-07
2.125 0 0.5 -8.742278e-08 1 -4.371138e-08 150 150 150 255 2.124999 9.725784e-07
3.1875 0 0.5 -8.742278e-08 1 -4.371138e-08 150 150 150 255 3.187499 1.065465e-06
4.25 0 0.5 -8.742278e-08 1 -4.371138e-08 150 150 150 255 4.249999 1.158352e-06
5.3125 0 0.5 -8.742278e-08 1 -4.371138e-08 150 150 150 255 5.312499 1.251238e-06
6.375 0 0.5 -8.742278e-08 1 -4.371138e-08 150 150 150 255 6.374999 1.344125e-06
7.4375 0 0.5 -8.742278e-08 1 -4.371138e-08 150 150 150 255 7.437499 1.437012e-06
8.5 0 0.5 -8.742278e-08 1 -4.371138e-08 150 150 150 255 8.499998 1.529898e-06
3 18 1 0 
3 0 17 18 
3 19 2 1 
3 1 18 19 
3 20 3 2 
3 2 19 20 
3 21 4 3 
3 3 20 21 
3 22 5 4 
3 4 21 22 
3 23 6 5 
3 5 22 23 
3 24 7 6 
3 6 23 24 
3 25 8 7 
3 7 24 25 
3 26 9 8 
3 8 25 26 
3 27 10 9 
3 9 26 27 
3 28 11 10 
3 10 27 28 
3 29 12 11 
3 11 28 29 
3 30 13 12 
3 12 29 30 
3 31 14 13 
3 13 30 31 
3 32 15 14 
3 14 31 32 
3 33 16 15 
3 15 32 33 
