ply
format ascii 1.0
comment VCGLIB generated
element vertex 34
property float x
property float y
property float z
property float nx
property float ny
property float nz
property uchar red
property uchar green
property uchar blue
property uchar alpha
property float texture_u
property float texture_v
element face 32
property list uchar int vertex_indices
end_header
-4.999987 3.278355e-08 0.4999993 -1.528549e-14 -1 1.311342e-07 150 150 150 255 -4.999987 3.278355e-08
-4.374987 3.278355e-08 0.4999994 -1.528549e-14 -1 1.311342e-07 150 150 150 255 -4.374987 3.278355e-08
-3.749981 3.278355e-08 0.4999995 -1.528549e-14 -1 1.311342e-07 150 150 150 255 -3.749981 3.278355e-08
-3.124981 3.278355e-08 0.4999995 -1.528549e-14 -1 1.311342e-07 150 150 150 255 -3.124981 3.278355e-08
-2.499981 3.278354e-08 0.4999996 -1.528549e-14 -1 1.311342e-07 150 150 150 255 -2.499981 3.278354e-08
-1.874982 3.278354e-08 0.4999996 -1.528549e-14 -1 1.311342e-07 150 150 150 255 -1.874982 3.278354e-08
-1.249982 3.278354e-08 0.4999997 -1.528549e-14 -1 1.311342e-07 150 150 150 255 -1.249982 3.278354e-08
-0.6249821 3.278354e-08 0.4999997 -1.528549e-14 -1 1.311342e-07 150 150 150 255 -0.6249821 3.278354e-08
1.729676e-05 3.278353e-08 0.4999998 -1.528549e-14 -1 1.311342e-07 150 150 150 255 1.729676e-05 3.278353e-08
0.6250175 3.278353e-08 0.4999998 -1.528549e-14 -1 1.311342e-07 150 150 150 255 0.6250175 3.278353e-08
1.250017 3.278353e-08 0.4999999 -1.528549e-14 -1 1.311342e-07 150 150 150 255 1.250017 3.278353e-08
1.875016 3.278353e-08 0.4999999 -1.528549e-14 -1 1.311342e-07 150 150 150 255 1.875016 3.278353e-08
2.500017 3.278353e-08 0.5 -1.528549e-14 -1 1.311342e-07 150 150 150 255 2.500017 3.278353e-08
3.125017 3.278352e-08 0.5000001 -1.528549e-14 -1 1.311342e-07 150 150 150 255 3.125017 3.278352e-08
3.750015 3.278352e-08 0.5000001 -1.528549e-14 -1 1.311342e-07 150 150 150 255 3.750015 3.278352e-08
4.375009 3.278351e-08 0.5000002 -1.528549e-14 -1 1.311342e-07 150 150 150 255 4.375009 3.278351e-08
5.000009 3.278351e-08 0.5000002 -1.528549e-14 -1 1.311342e-07 150 150 150 255 5.000009 3.278351e-08
-4.999987 -9.835057e-08 -0.5000006 -1.528549e-14 -1 1.311342e-07 150 150 150 255 -4.999987 -9.835057e-08
-4.374987 -9.835057e-08 -0.5000006 -1.528549e-14 -1 1.311342e-07 150 150 150 255 -4.374987 -9.835057e-08
-3.749981 -9.835057e-08 -0.5000006 -1.528549e-14 -1 1.311342e-07 150 150 150 255 -3.749981 -9.835057e-08
-3.124981 -9.835058e-08 -0.5000005 -1.528549e-14 -1 1.311342e-07 150 150 150 255 -3.124981 -9.835058e-08
-2.499981 -9.835058e-08 -0.5000005 -1.528549e-14 -1 1.311342e-07 150 150 150 255 -2.499981 -9.835058e-08
-1.874982 -9.835058e-08 -0.5000004 -1.528549e-14 -1 1.311342e-07 150 150 150 255 -1.874982 -9.835058e-08
-1.249982 -9.835058e-08 -0.5000004 -1.528549e-14 -1 1.311342e-07 150 150 150 255 -1.249982 -9.835058e-08
-0.6249821 -9.835059e-08 -0.5000002 -1.528549e-14 -1 1.311342e-07 150 150 150 255 -0.6249821 -9.835059e-08
1.735636e-05 -9.835059e-08 -0.5000002 -1.528549e-14 -1 1.311342e-07 222 222 222 255 1.735636e-05 -9.835059e-08
0.6250176 -9.83506e-08 -0.5000001 -1.528549e-14 -1 1.311342e-07 255 255 255 255 0.6250176 -9.83506e-08
1.250017 -9.83506e-08 -0.5000001 -1.528549e-14 -1 1.311342e-07 255 255 255 255 1.250017 -9.83506e-08
1.875016 -9.83506e-08 -0.5 -1.528549e-14 -1 1.311342e-07 175 175 175 255 1.875016 -9.83506e-08
2.500017 -9.83506e-08 -0.5 -1.528549e-14 -1 1.311342e-07 138 138 138 255 2.500017 -9.83506e-08
3.125017 -9.83506e-08 -0.4999999 -1.528549e-14 -1 1.311342e-07 164 164 164 255 3.125017 -9.83506e-08
3.750015 -9.83506e-08 -0.4999999 -1.528549e-14 -1 1.311342e-07 195 195 195 255 3.750015 -9.83506e-08
4.375009 -9.83506e-08 -0.4999999 -1.528549e-14 -1 1.311342e-07 150 150 150 255 4.375009 -9.83506e-08
5.000009 -9.835061e-08 -0.4999998 -1.528549e-14 -1 1.311342e-07 150 150 150 255 5.000009 -9.835061e-08
3 18 1 0 
3 0 17 18 
3 19 2 1 
3 1 18 19 
3 20 3 2 
3 2 19 20 
3 21 4 3 
3 3 20 21 
3 22 5 4 
3 4 21 22 
3 23 6 5 
3 5 22 23 
3 24 7 6 
3 6 23 24 
3 25 8 7 
3 7 24 25 
3 26 9 8 
3 8 25 26 
3 27 10 9 
3 9 26 27 
3 28 11 10 
3 10 27 28 
3 29 12 11 
3 11 28 29 
3 30 13 12 
3 12 29 30 
3 31 14 13 
3 13 30 31 
3 32 15 14 
3 14 31 32 
3 33 16 15 
3 15 32 33 
