ply
format ascii 1.0
comment VCGLIB generated
element vertex 68
property float x
property float y
property float z
property float nx
property float ny
property float nz
property uchar red
property uchar green
property uchar blue
property uchar alpha
property float texture_u
property float texture_v
element face 132
property list uchar int vertex_indices
end_header
-14 4.488137 -1 0 1 0 150 150 150 255 0.625 0.5
-14 4.488137 0.9999999 0 1 0 168 168 168 255 0.625 0.25
-12 4.488137 0.9999999 0 1 0 210 210 210 255 0.625 0.25
-12 4.488137 -1 0 1 0 150 150 150 255 0.625 0.5
-16 5.960464e-08 -0.9999999 0 -1 0 150 150 150 255 0.375 0.75
-14 5.960464e-08 -1 0 -1 0 150 150 150 255 0.625 0.75
-14 5.960464e-08 0.9999999 0 -1 0 150 150 150 255 0.625 1
-16 5.960464e-08 1 0 -1 0 150 150 150 255 0.375 1
-16 4.488137 1 4.371139e-08 0 1 179 179 179 255 0.375 0.25
-16 4.488137 -0.9999999 -1 0 4.371139e-08 150 150 150 255 0.375 0.5
-10 4.488137 0.9999998 0 1 0 255 255 255 255 0.625 0.25
-10 4.488137 -1 0 1 0 150 150 150 255 0.625 0.5
-12 5.960464e-08 -1 0 -1 0 150 150 150 255 0.625 0.75
-12 5.960464e-08 0.9999999 0 -1 0 150 150 150 255 0.625 1
-10 5.960464e-08 -1 -4.371139e-08 0 -1 150 150 150 255 0.625 0.75
-8 4.488137 -1 -4.371139e-08 0 -1 150 150 150 255 0.625 0.5
-8 5.960464e-08 -1 -4.371139e-08 0 -1 150 150 150 255 0.625 0.75
-10 5.960464e-08 0.9999998 4.371139e-08 0 1 150 150 150 255 0.625 0
-8 4.488137 0.9999997 4.371139e-08 0 1 255 255 255 255 0.625 0.25
-8 5.960464e-08 0.9999997 4.371139e-08 0 1 150 150 150 255 0.625 0
-6 5.960464e-08 0.9999996 4.371139e-08 0 1 150 150 150 255 0.625 0
-6 4.488137 0.9999996 4.371139e-08 0 1 150 150 150 255 0.625 0.25
-6 4.488137 -1 0 1 0 255 255 255 255 0.625 0.5
-4 4.488137 0.9999995 0 1 0 150 150 150 255 0.625 0.25
-4 4.488137 -1 0 1 0 198 198 198 255 0.625 0.5
-6 5.960464e-08 -1 0 -1 0 150 150 150 255 0.625 0.75
-4 5.960464e-08 0.9999995 4.371139e-08 0 1 150 150 150 255 0.625 0
-2 5.960464e-08 0.9999994 4.371139e-08 0 1 150 150 150 255 0.625 0
-2 4.488137 0.9999994 4.371139e-08 0 1 150 150 150 255 0.625 0.25
-4 5.960464e-08 -1 -4.371139e-08 0 -1 150 150 150 255 0.625 0.75
0 5.960464e-08 0.9999993 4.371139e-08 0 1 150 150 150 255 0.625 0
0 4.488137 0.9999993 4.371139e-08 0 1 150 150 150 255 0.625 0.25
-2 5.960464e-08 -1.000001 0 -1 0 150 150 150 255 0.625 0.75
-2 4.488137 -1.000001 0 1 0 150 150 150 255 0.625 0.5
0 4.488137 -1.000001 0 1 0 150 150 150 255 0.625 0.5
2 4.488137 0.9999993 0 1 0 150 150 150 255 0.625 0.25
2 4.488137 -1.000001 0 1 0 150 150 150 255 0.625 0.5
0 5.960464e-08 -1.000001 0 -1 0 150 150 150 255 0.625 0.75
2 5.960464e-08 0.9999993 4.371139e-08 0 1 150 150 150 255 0.625 0
4 5.960464e-08 0.9999992 4.371139e-08 0 1 150 150 150 255 0.625 0
4 4.488137 0.9999992 4.371139e-08 0 1 150 150 150 255 0.625 0.25
2 5.960464e-08 -1.000001 -4.371139e-08 0 -1 150 150 150 255 0.625 0.75
4 5.960464e-08 -1.000001 0 -1 0 150 150 150 255 0.625 0.75
6 5.960464e-08 -1.000001 0 -1 0 150 150 150 255 0.625 0.75
6 5.960464e-08 0.9999991 0 -1 0 150 150 150 255 0.625 1
4 4.488137 -1.000001 0 1 0 150 150 150 255 0.625 0.5
6 4.488137 -1.000001 0 1 0 150 150 150 255 0.625 0.5
6 4.488137 0.9999991 0 1 0 150 150 150 255 0.625 0.25
8 4.488137 0.999999 0 1 0 150 150 150 255 0.625 0.25
8 4.488137 -1.000001 0 1 0 150 150 150 255 0.625 0.5
8 5.960464e-08 0.999999 4.371139e-08 0 1 150 150 150 255 0.625 0
10 5.960464e-08 0.9999989 4.371139e-08 0 1 150 150 150 255 0.625 0
10 4.488137 0.9999989 4.371139e-08 0 1 150 150 150 255 0.625 0.25
8 5.960464e-08 -1.000001 -4.371139e-08 0 -1 150 150 150 255 0.625 0.75
10 4.488137 -1.000001 0 1 0 150 150 150 255 0.625 0.5
12 4.488137 0.9999988 0 1 0 150 150 150 255 0.625 0.25
12 4.488137 -1.000001 0 1 0 150 150 150 255 0.625 0.5
10 5.960464e-08 -1.000001 0 -1 0 150 150 150 255 0.625 0.75
12 5.960464e-08 -1.000001 -4.371139e-08 0 -1 150 150 150 255 0.625 0.75
14 4.488137 -1.000001 -4.371139e-08 0 -1 150 150 150 255 0.625 0.5
14 5.960464e-08 -1.000001 -4.371139e-08 0 -1 150 150 150 255 0.625 0.75
12 5.960464e-08 0.9999988 4.371139e-08 0 1 150 150 150 255 0.625 0
14 4.488137 0.9999987 4.371139e-08 0 1 150 150 150 255 0.625 0.25
14 5.960464e-08 0.9999987 4.371139e-08 0 1 150 150 150 255 0.625 0
16 5.960464e-08 0.9999986 4.371139e-08 0 1 150 150 150 255 0.625 0
16 4.488137 0.9999986 4.371139e-08 0 1 150 150 150 255 0.625 0.25
16 4.488137 -1.000001 1 0 -4.371139e-08 150 150 150 255 0.625 0.5
16 5.960464e-08 -1.000001 1 0 -4.371139e-08 150 150 150 255 0.625 0.75
3 0 1 2 
3 0 2 3 
3 4 5 6 
3 4 6 7 
3 7 6 1 
3 7 1 8 
3 8 9 4 
3 8 4 7 
3 9 0 5 
3 9 5 4 
3 8 1 0 
3 8 0 9 
3 3 2 10 
3 3 10 11 
3 6 5 12 
3 6 12 13 
3 1 6 13 
3 1 13 2 
3 5 0 3 
3 5 3 12 
3 14 11 15 
3 14 15 16 
3 12 3 11 
3 12 11 14 
3 2 13 17 
3 2 17 10 
3 13 12 14 
3 13 14 17 
3 18 19 20 
3 18 20 21 
3 10 17 19 
3 10 19 18 
3 17 14 16 
3 17 16 19 
3 11 10 18 
3 11 18 15 
3 22 21 23 
3 22 23 24 
3 19 16 25 
3 19 25 20 
3 15 18 21 
3 15 21 22 
3 16 15 22 
3 16 22 25 
3 23 26 27 
3 23 27 28 
3 25 22 24 
3 25 24 29 
3 21 20 26 
3 21 26 23 
3 20 25 29 
3 20 29 26 
3 28 27 30 
3 28 30 31 
3 26 29 32 
3 26 32 27 
3 24 23 28 
3 24 28 33 
3 29 24 33 
3 29 33 32 
3 34 31 35 
3 34 35 36 
3 27 32 37 
3 27 37 30 
3 33 28 31 
3 33 31 34 
3 32 33 34 
3 32 34 37 
3 35 38 39 
3 35 39 40 
3 37 34 36 
3 37 36 41 
3 31 30 38 
3 31 38 35 
3 30 37 41 
3 30 41 38 
3 39 42 43 
3 39 43 44 
3 38 41 42 
3 38 42 39 
3 36 35 40 
3 36 40 45 
3 41 36 45 
3 41 45 42 
3 46 47 48 
3 46 48 49 
3 45 40 47 
3 45 47 46 
3 42 45 46 
3 42 46 43 
3 40 39 44 
3 40 44 47 
3 48 50 51 
3 48 51 52 
3 43 46 49 
3 43 49 53 
3 47 44 50 
3 47 50 48 
3 44 43 53 
3 44 53 50 
3 54 52 55 
3 54 55 56 
3 50 53 57 
3 50 57 51 
3 49 48 52 
3 49 52 54 
3 53 49 54 
3 53 54 57 
3 58 56 59 
3 58 59 60 
3 57 54 56 
3 57 56 58 
3 52 51 61 
3 52 61 55 
3 51 57 58 
3 51 58 61 
3 62 63 64 
3 62 64 65 
3 55 61 63 
3 55 63 62 
3 61 58 60 
3 61 60 63 
3 56 55 62 
3 56 62 59 
3 66 65 64 
3 66 64 67 
3 63 60 67 
3 63 67 64 
3 59 62 65 
3 59 65 66 
3 60 59 66 
3 60 66 67 
