ply
format ascii 1.0
comment VCGLIB generated
element vertex 290
property float x
property float y
property float z
property float nx
property float ny
property float nz
property uchar red
property uchar green
property uchar blue
property uchar alpha
property float texture_u
property float texture_v
element face 576
property list uchar int vertex_indices
end_header
-0.948588 0.486906 1.113226 0.5773503 0.5773503 0.5773503 255 255 255 255 0.625 0.5
-1.50114 0.486906 1.113226 -0.5773503 0.5773503 0.5773503 255 255 255 255 0.875 0.5
-1.50114 0.15948 1.113226 -0.5773503 -0.5773503 0.5773503 255 255 255 255 0.875 0.75
-0.948588 0.15948 1.113226 0.5773503 -0.5773503 0.5773503 255 255 255 255 0.625 0.75
1.35148 0.407728 1.07488 0.3785807 0.6557223 0.6532266 255 255 255 255 0.37 0.457846
1.208672 0.445993 1.07488 -6.246325e-07 0.7571622 0.653227 255 255 255 255 0.25 0.49
1.065865 0.407728 1.07488 -0.3785812 0.6557218 0.6532267 255 255 255 255 0.13 0.457846
0.961323 0.303186 1.07488 -0.6557218 0.3785813 0.6532267 255 255 255 255 0.042154 0.37
0.923058 0.160379 1.07488 -0.7571622 6.506589e-07 0.6532269 255 255 255 255 0.01 0.25
0.961323 0.017571 1.07488 -0.6557222 -0.3785807 0.6532266 255 255 255 255 0.042154 0.13
1.065865 -0.086971 1.07488 -0.3785811 -0.6557219 0.6532268 255 255 255 255 0.13 0.042154
1.208672 -0.125236 1.07488 -6.320685e-07 -0.7571622 0.6532269 255 255 255 255 0.25 0.01
1.35148 -0.086971 1.07488 0.3785807 -0.6557223 0.6532266 255 255 255 255 0.37 0.042154
1.456022 0.017571 1.07488 0.6557223 -0.3785807 0.6532266 255 255 255 255 0.457846 0.13
1.494287 0.160379 1.07488 0.7571622 6.543768e-07 0.653227 255 255 255 255 0.49 0.25
1.456022 0.303186 1.07488 0.6557219 0.3785812 0.6532267 255 255 255 255 0.457846 0.37
-0.788444 -0.979434 -0.062887 -0.7571629 -0.6532261 1.01131e-06 255 255 255 255 0.25 1
-0.682812 -0.979435 -0.457109 -0.6557216 -0.6532272 -0.3785808 255 255 255 255 0.333333 1
-0.588407 -0.979435 -0.402604 -0.5522898 -0.7702609 -0.3188637 255 255 255 255 0.333333 1
-0.679435 -0.979434 -0.062887 -0.637727 -0.7702626 4.446826e-07 255 255 255 255 0.25 1
-0.339717 -0.979435 -0.651295 -0.3188635 -0.7702624 -0.5522879 255 255 255 255 0.416667 1
-0.339717 -1.195991 -0.651295 -0.3785812 -0.6532263 -0.6557222 255 255 255 255 0.416667 1
-0.588407 -1.195991 -0.402604 -0.6557212 -0.6532273 -0.3785813 255 255 255 255 0.333333 1
-0.394222 -0.979435 -0.745699 -0.3785809 -0.6532266 -0.6557222 255 255 255 255 0.416667 1
0 -0.979435 -0.85133 -4.610377e-07 -0.6532276 -0.7571616 255 255 255 255 0.5 1
0 -0.979435 -0.742321 8.768392e-07 -0.7702615 -0.6377281 255 255 255 255 0.5 1
0.394222 -0.979435 -0.745699 0.3785812 -0.6532268 -0.6557218 255 255 255 255 0.583333 1
0.339717 -0.979435 -0.651294 0.3188636 -0.7702615 -0.5522891 255 255 255 255 0.583333 1
0.682812 -0.979435 -0.457109 0.6557216 -0.6532273 -0.3785807 255 255 255 255 0.666667 1
0.588408 -0.979435 -0.402604 0.5522888 -0.7702618 -0.3188635 255 255 255 255 0.666667 1
0.788444 -0.979434 -0.062887 0.7571627 -0.6532263 6.952758e-07 255 255 255 255 0.75 1
0.679435 -0.979434 -0.062887 0.6377274 -0.7702622 1.15868e-06 255 255 255 255 0.75 1
0 -0.979434 0.725557 -4.684754e-07 -0.6532258 0.7571632 255 255 255 255 0 1
-0.394222 -0.979434 0.619925 -0.3785819 -0.6532266 0.6557216 255 255 255 255 0.083333 1
-0.339718 -0.979434 0.52552 -0.3188647 -0.7702616 0.5522884 255 255 255 255 0.083333 1
-0 -0.979434 0.616548 -5.949977e-07 -0.7702621 0.6377275 255 255 255 255 0 1
0.394222 -0.979434 0.619925 0.3785816 -0.6532269 0.6557215 255 255 255 255 0.916667 1
0.339717 -0.979434 0.525521 0.318864 -0.7702618 0.5522885 255 255 255 255 0.916667 1
0.682812 -0.979434 0.331335 0.6557215 -0.6532269 0.3785815 255 255 255 255 0.833333 1
0.588408 -0.979434 0.27683 0.5522885 -0.7702618 0.318864 255 255 255 255 0.833333 1
-0.682812 -0.979434 0.331334 -0.6557215 -0.653227 0.3785811 255 255 255 255 0.166667 1
-0.588408 -0.979434 0.27683 -0.5522886 -0.7702617 0.318864 255 255 255 255 0.166667 1
0.339717 -1.195991 0.525521 0.3785814 -0.6532266 0.655722 255 255 255 255 0.916667 1
-0 -1.195991 0.616548 -7.175844e-07 -0.6532267 0.7571625 255 255 255 255 1 1
-0 -1.195991 0.581229 -8.956284e-07 -0.7702619 0.6377277 255 255 255 255 1 1
0.322058 -1.195991 0.494934 0.3188637 -0.7702618 0.5522886 255 255 255 255 0.916667 1
0.588408 -1.195991 -0.402604 0.6557215 -0.6532267 -0.378582 255 255 255 255 0.666667 1
0.339717 -1.195991 -0.651294 0.3785805 -0.6532271 -0.6557219 255 255 255 255 0.583333 1
-0.339718 -1.195991 0.52552 -0.3785819 -0.653227 0.6557212 255 255 255 255 0.083333 1
0.588408 -1.195991 0.27683 0.6557218 -0.6532267 0.3785813 255 255 255 255 0.833333 1
-0.679435 -1.195991 -0.062887 -0.7571626 -0.6532265 -1.044773e-06 255 255 255 255 0.25 1
0 -1.195991 -0.742321 1.044772e-06 -0.6532268 -0.7571623 255 255 255 255 0.5 1
0.679435 -1.195991 -0.062887 0.7571623 -0.6532267 2.602636e-08 255 255 255 255 0.75 1
-0.588408 -1.195991 0.27683 -0.6557217 -0.6532269 0.3785812 255 255 255 255 0.166667 1
-0.322058 -1.195991 0.494933 -0.3188643 -0.7702613 0.552289 255 255 255 255 0.083333 1
-0.557821 -1.195991 0.259171 -0.5522878 -0.7702622 0.3188641 255 255 255 255 0.166667 1
-0.557821 -1.462574 0.259171 -0.5522879 0.7702621 0.3188641 255 255 255 255 0.166667 1
-0.322058 -1.462574 0.494933 -0.3188643 0.7702612 0.5522891 255 255 255 255 0.083333 1
-0.322058 -1.195991 -0.620708 -0.3188641 -0.7702622 -0.5522879 255 255 255 255 0.416667 1
-0.55782 -1.195991 -0.384945 -0.5522889 -0.7702614 -0.3188643 255 255 255 255 0.333333 1
0.557821 -1.195991 -0.384945 0.5522885 -0.7702619 -0.3188637 255 255 255 255 0.666667 1
0.322058 -1.195991 -0.620708 0.3188638 -0.7702618 -0.5522886 255 255 255 255 0.583333 1
0.557821 -1.195991 0.259171 0.5522885 -0.7702619 0.3188637 255 255 255 255 0.833333 1
-0.644116 -1.195991 -0.062887 -0.6377275 -0.7702621 -8.831018e-07 255 255 255 255 0.25 1
0 -1.195991 -0.707003 -1.252628e-08 -0.7702616 -0.637728 255 255 255 255 0.5 1
0.644116 -1.195991 -0.062887 0.637728 -0.7702616 0 255 255 255 255 0.75 1
0.557821 -1.462574 -0.384945 0.5522885 0.7702619 -0.3188637 255 255 255 255 0.666667 1
0.644116 -1.462574 -0.062887 0.6377279 0.7702618 0 255 255 255 255 0.75 1
0.664871 -1.462574 -0.062887 0.7571624 0.6532267 -3.718053e-09 255 255 255 255 0.75 1
0.575795 -1.462574 -0.395322 0.6557218 0.6532267 -0.3785815 255 255 255 255 0.666667 1
-0 -1.462574 0.581229 -9.144177e-07 0.7702621 0.6377276 255 255 255 255 1 1
0.322058 -1.462574 0.494934 0.3188637 0.770262 0.5522884 255 255 255 255 0.916667 1
-0.322058 -1.462574 -0.620708 -0.3188641 0.7702621 -0.5522879 255 255 255 255 0.416667 1
-0.55782 -1.462574 -0.384945 -0.5522891 0.7702612 -0.3188644 255 255 255 255 0.333333 1
0.322058 -1.462574 -0.620708 0.3188638 0.7702618 -0.5522886 255 255 255 255 0.583333 1
0.557821 -1.462574 0.259171 0.5522885 0.7702619 0.3188637 255 255 255 255 0.833333 1
-0.644116 -1.462574 -0.062887 -0.6377275 0.7702621 -8.768387e-07 255 255 255 255 0.25 1
0 -1.462574 -0.707003 1.252627e-08 0.7702618 -0.6377279 255 255 255 255 0.5 1
0.664871 -1.814138 -0.062887 0.7571625 -0.6532266 7.436106e-09 255 255 255 255 0.75 1
0.575795 -1.814138 -0.395322 0.6557216 -0.6532269 -0.3785813 255 255 255 255 0.666667 1
-0.575795 -1.462574 0.269548 -0.655722 0.6532269 0.3785807 255 255 255 255 0.166667 1
-0.332436 -1.462574 0.512908 -0.378582 0.6532267 0.6557215 255 255 255 255 0.083333 1
-0 -1.462574 0.601984 2.82572e-07 0.6532268 0.7571624 255 255 255 255 1 1
0.332435 -1.462574 0.512908 0.3785815 0.6532267 0.6557217 150 150 150 255 0.916667 1
-0.332435 -1.462574 -0.638682 -0.3785812 0.6532265 -0.6557221 255 255 255 255 0.416667 1
-0.575795 -1.462574 -0.395322 -0.6557215 0.653227 -0.3785813 255 255 255 255 0.333333 1
0.332435 -1.462574 -0.638682 0.3785813 0.653227 -0.6557215 255 255 255 255 0.583333 1
0.575795 -1.462574 0.269548 0.6557215 0.653227 0.3785813 255 255 255 255 0.833333 1
-0.664871 -1.462574 -0.062887 -0.7571625 0.6532267 7.436106e-09 255 255 255 255 0.25 1
0 -1.462574 -0.727758 -5.354004e-07 0.6532257 -0.7571632 255 255 255 255 0.5 1
-0.332435 -1.814138 -0.638682 -0.3785806 -0.6532266 -0.6557223 255 255 255 255 0.416667 1
0 -1.814138 -0.727757 -5.353983e-07 -0.653228 -0.7571613 255 255 255 255 0.5 1
0 -1.814138 -0.704608 2.505255e-07 -0.7702616 0.6377281 255 255 255 255 0.5 1
-0.32086 -1.814138 -0.618634 0.3188633 -0.7702616 0.5522891 255 255 255 255 0.416667 1
-0.575795 -1.814138 0.269548 -0.6557218 -0.6532272 0.3785806 255 255 255 255 0.166667 1
-0.332436 -1.814138 0.512908 -0.3785819 -0.6532267 0.6557214 255 255 255 255 0.083333 1
0 -1.814138 0.601984 2.75136e-07 -0.6532266 0.7571625 255 255 255 255 1 1
0.332435 -1.814138 0.512908 0.3785815 -0.6532268 0.6557217 255 255 255 255 0.916667 1
-0.575795 -1.814138 -0.395322 -0.6557216 -0.6532269 -0.3785814 255 255 255 255 0.333333 1
0.332435 -1.814138 -0.638682 0.378581 -0.6532267 -0.655722 255 255 255 255 0.583333 1
0.575795 -1.814138 0.269548 0.6557217 -0.6532268 0.3785815 255 255 255 255 0.833333 1
-0.664871 -1.814138 -0.062887 -0.7571625 -0.6532266 -3.718053e-09 255 255 255 255 0.25 1
0 -1.798638 -0.704608 2.711787e-07 -0.3926481 0.9196888 255 255 255 255 0.5 1
-0.32086 -1.798638 -0.618634 0.4598434 -0.392648 0.7964745 255 255 255 255 0.416667 1
0.641721 -1.814138 -0.062887 -0.6377282 -0.7702615 -1.252627e-08 255 255 255 255 0.75 1
0.555747 -1.814138 -0.383748 -0.5522885 -0.7702621 0.3188634 255 255 255 255 0.666667 1
-0.555747 -1.814138 0.257973 0.5522889 -0.7702618 -0.3188633 255 255 255 255 0.166667 1
-0.320861 -1.814138 0.49286 0.3188641 -0.7702621 -0.5522881 255 255 255 255 0.083333 1
0 -1.814138 0.578834 1.252628e-08 -0.7702614 -0.6377283 255 255 255 255 1 1
0.320861 -1.814138 0.49286 -0.3188635 -0.7702619 -0.5522885 255 255 255 255 0.916667 1
-0.555747 -1.814138 -0.383748 0.552288 -0.7702622 0.318864 255 255 255 255 0.333333 1
0.320861 -1.814138 -0.618634 -0.3188637 -0.7702618 0.5522887 255 255 255 255 0.583333 1
0.555747 -1.814138 0.257974 -0.5522886 -0.7702619 -0.3188636 255 255 255 255 0.833333 1
-0.641721 -1.814138 -0.062887 0.6377281 -0.7702616 -2.442623e-07 255 255 255 255 0.25 1
-0.555747 -1.798638 0.257973 0.7964745 -0.392648 -0.4598434 255 255 255 255 0.166667 1
-0.641721 -1.798638 -0.062887 0.9196888 -0.3926482 -1.370167e-07 255 255 255 255 0.25 1
-0.518926 -1.692814 -0.062887 0.3970366 -0.9178029 1.45695e-07 255 255 255 255 0.25 1
-0.449403 -1.692814 0.196576 0.3438433 -0.917803 -0.1985181 255 255 255 255 0.166667 1
0.641721 -1.798638 -0.062887 -0.9196888 -0.3926481 -1.455802e-07 255 255 255 255 0.75 1
0.555747 -1.798638 -0.383748 -0.7964738 -0.3926486 0.4598441 255 255 255 255 0.666667 1
-0.320861 -1.798638 0.49286 0.4598445 -0.3926486 -0.7964736 255 255 255 255 0.083333 1
0 -1.798638 0.578834 1.512892e-07 -0.3926482 -0.9196888 255 255 255 255 1 1
0.320861 -1.798638 0.49286 -0.4598441 -0.3926486 -0.7964738 255 255 255 255 0.916667 1
-0.555747 -1.798638 -0.383748 0.7964736 -0.3926486 0.4598445 255 255 255 255 0.333333 1
0.320861 -1.798638 -0.618634 -0.4598438 -0.3926488 0.7964738 255 255 255 255 0.583333 1
0.555747 -1.798638 0.257974 -0.7964738 -0.3926488 -0.4598438 255 255 255 255 0.833333 1
0.518926 -1.692814 -0.062887 -0.3970364 -0.9178029 -2.861866e-07 255 255 255 255 0.75 1
0.449403 -1.692814 0.196576 -0.3438429 -0.9178033 -0.1985174 255 255 255 255 0.833333 1
0.250547 -1.692814 0.081766 0.1954269 -0.9742063 0.1128297 255 255 255 255 0.833333 1
0.289307 -1.692814 -0.062887 0.2256513 -0.9742082 -7.464647e-07 255 255 255 255 0.75 1
0 -1.692814 -0.581813 -1.092712e-07 -0.9178029 0.3970364 255 255 255 255 0.5 1
-0.259463 -1.692814 -0.51229 0.1985181 -0.917803 0.3438433 255 255 255 255 0.416667 1
0.449403 -1.692814 -0.32235 -0.3438426 -0.9178034 0.1985176 255 255 255 255 0.666667 1
-0.259463 -1.692814 0.386516 0.1985174 -0.9178033 -0.3438429 255 255 255 255 0.083333 1
-0 -1.692814 0.456039 2.9139e-07 -0.9178029 -0.3970364 255 255 255 255 1 1
0.259463 -1.692814 0.386516 -0.1985176 -0.9178034 -0.3438426 255 255 255 255 0.916667 1
-0.449403 -1.692814 -0.32235 0.3438429 -0.9178033 0.1985174 255 255 255 255 0.333333 1
0.259463 -1.692814 -0.51229 -0.1985174 -0.9178033 0.3438429 255 255 255 255 0.583333 1
0.223173 -1.711876 0.065962 0.3317699 -0.9237089 0.1915481 255 255 255 255 0.833333 1
0.257697 -1.711876 -0.062887 0.3830859 -0.9237127 -1.374942e-06 255 255 255 255 0.75 1
-0.289307 -1.692814 -0.062887 -0.2256513 -0.9742081 7.440253e-07 255 255 255 255 0.25 1
-0.250547 -1.692814 0.081766 -0.1954266 -0.9742064 0.1128287 255 255 255 255 0.166667 1
0 -1.692814 -0.352193 -2.244276e-07 -0.9742067 -0.2256577 255 255 255 255 0.5 1
-0.144653 -1.692814 -0.313434 -0.1128285 -0.9742065 -0.1954265 255 255 255 255 0.416667 1
0.250547 -1.692814 -0.20754 0.1954266 -0.9742064 -0.1128287 255 255 255 255 0.666667 1
-0.144653 -1.692814 0.18766 -0.1128296 -0.9742063 0.1954267 255 255 255 255 0.083333 1
-0 -1.692814 0.22642 1.658813e-07 -0.9742069 0.2256566 255 255 255 255 1 1
0.144653 -1.692814 0.18766 0.1128294 -0.9742063 0.1954267 255 255 255 255 0.916667 1
-0.250547 -1.692814 -0.20754 -0.1954268 -0.9742063 -0.1128297 255 255 255 255 0.333333 1
0.144653 -1.692814 -0.313434 0.1128288 -0.9742064 -0.1954266 255 255 255 255 0.583333 1
0 -1.711876 -0.320584 -3.342473e-07 -0.9237099 -0.3830928 255 255 255 255 0.5 1
0.128849 -1.711876 -0.28606 0.1915474 -0.9237087 -0.3317707 255 255 255 255 0.583333 1
0.085449 -1.728566 -0.21089 0.07367352 -0.9890848 -0.1276072 255 255 255 255 0.583333 1
0 -1.728566 -0.233786 3.813015e-07 -0.9890846 -0.1473489 255 255 255 255 0.5 1
-0.257697 -1.711876 -0.062887 -0.3830859 -0.9237127 1.376166e-06 255 255 255 255 0.25 1
-0.223173 -1.711876 0.065962 -0.3317713 -0.9237085 0.1915474 255 255 255 255 0.166667 1
-0.128849 -1.711876 -0.28606 -0.1915473 -0.9237086 -0.3317713 255 255 255 255 0.416667 1
0.223173 -1.711876 -0.191736 0.3317713 -0.9237086 -0.1915473 255 255 255 255 0.666667 1
-0.128849 -1.711876 0.160286 -0.1915485 -0.9237089 0.3317698 255 255 255 255 0.083333 1
-0 -1.711876 0.194811 3.262894e-07 -0.9237099 0.3830928 255 255 255 255 1 1
0.128849 -1.711876 0.160286 0.1915483 -0.9237087 0.3317702 255 255 255 255 0.916667 1
-0.223173 -1.711876 -0.191736 -0.3317699 -0.9237089 -0.1915481 255 255 255 255 0.333333 1
0.041032 -1.736513 -0.133957 0.02600413 -0.9986467 -0.04504008 255 255 255 255 0.583333 1
0 -1.736513 -0.144952 1.989138e-07 -0.9986467 -0.05200836 255 255 255 255 0.5 1
0.148003 -1.728566 0.022562 0.1276072 -0.9890847 0.07367352 255 255 255 255 0.833333 1
0.170899 -1.728566 -0.062887 0.1473489 -0.9890846 3.872501e-07 255 255 255 255 0.75 1
-0.170899 -1.728566 -0.062887 -0.1473489 -0.9890846 -3.873987e-07 255 255 255 255 0.25 1
-0.148003 -1.728566 0.022562 -0.1276069 -0.9890848 0.07367379 255 255 255 255 0.166667 1
-0.085449 -1.728566 -0.21089 -0.07367378 -0.9890848 -0.1276069 255 255 255 255 0.416667 1
0.148003 -1.728566 -0.148336 0.1276069 -0.9890848 -0.07367378 255 255 255 255 0.666667 1
-0.085449 -1.728566 0.085116 -0.0736737 -0.9890848 0.1276069 255 255 255 255 0.083333 1
-0 -1.728566 0.108012 -4.833189e-08 -0.9890848 0.1473479 255 255 255 255 1 1
0.085449 -1.728566 0.085116 0.07367378 -0.9890848 0.1276069 255 255 255 255 0.916667 1
-0.148003 -1.728566 -0.148336 -0.1276072 -0.9890847 -0.07367352 255 255 255 255 0.333333 1
0.041032 -1.736513 0.008183 0.02600423 -0.9986467 0.04503985 255 255 255 255 0.37 0.457846
-0 -1.736513 0.019178 -1.953512e-07 -0.9986467 0.05200836 255 255 255 255 0.25 0.49
-0.041032 -1.736513 0.008183 -0.02600413 -0.9986467 0.04504008 255 255 255 255 0.13 0.457846
-0.07107 -1.736513 -0.021855 -0.04503985 -0.9986467 0.02600423 255 255 255 255 0.042154 0.37
-0.082065 -1.736513 -0.062887 -0.05200836 -0.9986467 -1.977263e-07 255 255 255 255 0.01 0.25
-0.07107 -1.736513 -0.103919 -0.04504008 -0.9986467 -0.02600413 255 255 255 255 0.042154 0.13
-0.041032 -1.736513 -0.133957 -0.02600423 -0.9986467 -0.04503985 255 255 255 255 0.13 0.042154
0.07107 -1.736513 -0.103919 0.04503985 -0.9986467 -0.02600423 255 255 255 255 0.457846 0.13
0.082065 -1.736513 -0.062887 0.05200836 -0.9986467 1.986169e-07 255 255 255 255 0.49 0.25
0.07107 -1.736513 -0.021855 0.04504008 -0.9986467 0.02600413 255 255 255 255 0.457846 0.37
-0.62554 -0.409842 0.814229 0.5773503 -0.5773503 0.5773503 150 150 150 255 0.375 0.25
-0.270242 -0.409842 0.814229 -0.5773505 -0.5773502 0.5773502 150 150 150 255 0.375 0.5
-0.270242 -0.409842 1.073851 -0.5773503 -0.5773503 -0.5773503 150 150 150 255 0.625 0.5
-0.62554 -0.409842 1.073851 0.5773503 -0.5773503 -0.5773503 150 150 150 255 0.625 0.25
-0.270242 -0.571306 0.814229 -0.3015114 -0.9045341 0.3015113 255 255 255 255 0.375 0.65548
-0.270242 -0.571306 1 -1 7.589099e-08 0 255 255 255 255 0.553886 0.65548
-0.270242 -0.571306 1.073851 -0.5773504 0.5773503 -0.5773503 255 255 255 255 0.625 0.65548
-0.62554 -0.571306 0.814229 0.5773503 0.5773503 0.5773503 255 255 255 255 0.125 0.65548
-0.62554 -0.571306 1.073851 0.5773503 0.5773503 -0.5773503 255 255 255 255 0.875 0.65548
1.208672 0.467795 0.913581 -7.436104e-08 -0.7571622 0.653227 255 255 255 255 1 0.5
1.36238 0.426609 0.913581 -0.3785797 -0.6557222 0.6532273 150 150 150 255 0.916667 0.5
1.36238 0.426609 1 -0.3785797 -0.6557221 -0.6532273 255 255 255 255 0.916667 0.570278
1.208672 0.467795 1 -7.064301e-08 -0.7571625 -0.6532266 255 255 255 255 1 0.570278
1.474903 0.314087 0.913581 -0.6557212 -0.3785828 0.6532264 255 255 255 255 0.833333 0.5
1.474903 0.314087 1 -0.6557212 -0.3785827 -0.6532264 150 150 150 255 0.833333 0.570278
1.516089 0.160379 0.913581 -0.7571625 2.974442e-08 0.6532266 255 255 255 255 0.75 0.5
1.516089 0.160379 1 -0.6377278 1.252627e-08 0.7702619 255 255 255 255 0.75 0.570278
1.474903 0.006671 0.913581 -0.6557218 0.3785812 0.6532268 150 150 150 255 0.666667 0.5
1.474903 0.006671 1 -0.655722 0.3785812 -0.6532267 255 255 255 255 0.666667 0.570278
1.36238 -0.105852 0.913581 -0.3785814 0.6557217 0.6532268 150 150 150 255 0.583333 0.5
1.36238 -0.105852 1 -0.3785814 0.6557217 -0.6532267 255 255 255 255 0.583333 0.570278
1.208672 -0.147038 0.913581 -8.179715e-08 0.7571624 0.6532267 150 150 150 255 0.5 0.5
1.208672 -0.147038 1 -8.179715e-08 0.7571624 -0.6532267 255 255 255 255 0.5 0.570278
1.054964 -0.105852 0.913581 0.3785813 0.6557218 0.6532268 150 150 150 255 0.416667 0.5
1.054964 -0.105852 1 0.3785813 0.6557218 -0.6532268 255 255 255 255 0.416667 0.570278
0.942442 0.00667 0.913581 0.6557221 0.3785807 0.6532267 150 150 150 255 0.333333 0.5
0.942442 0.00667 1 0.6557222 0.3785807 -0.6532267 255 255 255 255 0.333333 0.570278
0.901256 0.160379 0.913581 0.7571623 -6.023243e-07 0.6532269 255 255 255 255 0.25 0.5
0.901256 0.160379 1 0.7571623 -6.171965e-07 -0.6532269 255 255 255 255 0.25 0.570278
0.942442 0.314087 0.913581 0.6557218 -0.3785811 0.6532268 255 255 255 255 0.166667 0.5
0.942442 0.314087 1 0.5522886 -0.3188639 0.7702618 255 255 255 255 0.166667 0.570278
1.054964 0.426609 0.913581 0.3785813 -0.6557217 0.6532267 255 255 255 255 0.083333 0.5
1.054964 0.426609 1 0.3188641 -0.5522884 0.7702618 255 255 255 255 0.083333 0.570278
0.923058 0.160379 0.913581 -0.9854384 8.613425e-07 0.1700329 150 150 150 255 0.527021 0.25
0.961323 0.303186 0.913581 -0.6557218 0.3785813 -0.6532267 255 255 255 255 0.556894 0.36149
1.065865 0.407728 0.913581 -0.3785811 0.6557218 -0.6532269 255 255 255 255 0.63851 0.443106
1.208672 0.445993 0.913581 -5.135772e-07 0.6377281 0.7702615 255 255 255 255 0.75 0.472979
1.35148 0.407728 0.913581 0.3785807 0.6557223 -0.6532266 255 255 255 255 0.86149 0.443106
1.456022 0.303186 0.913581 0.6557218 0.3785811 -0.6532268 150 150 150 255 0.943106 0.36149
1.494287 0.160379 0.913581 0.6377282 5.448929e-07 0.7702615 255 255 255 255 0.972979 0.25
-1.704586 -0.571306 0.40827 -0.7071068 -0.7071068 0 255 255 255 255 0.5 0
-1.704586 -0.571306 1 -0.5773503 -0.5773503 0.5773503 255 255 255 255 0.625 0
-1.704586 0.571306 1 -0.5773502 0.5773503 0.5773504 255 255 255 255 0.625 0.25
-1.704586 0.571306 0.40827 -0.7071068 0.7071068 0 255 255 255 255 0.5 0.25
0.745483 0.571306 0.40827 0 1 0 255 255 255 255 0.5 0.416667
0.745483 0.571306 1 0.3015113 0.904534 0.3015116 255 255 255 255 0.625 0.416667
1.704586 0.571306 1 0.5773503 0.5773503 0.5773503 255 255 255 255 0.625 0.5
1.704586 0.571306 0.40827 0.7071068 0.7071068 0 255 255 255 255 0.5 0.5
1.704586 -0.571306 1 0.5773503 -0.5773503 0.5773503 255 255 255 255 0.625 0.75
1.704586 -0.571306 0.40827 0.7071068 -0.7071068 0 255 255 255 255 0.5 0.75
-0.745483 -0.571306 0.40827 0 -1 0 255 255 255 255 0.5 0.916667
-0.745483 -0.571306 1 -0.3015113 -0.904534 0.3015113 255 255 255 255 0.625 0.916667
0.745483 0.571306 -1 0 0.7071068 -0.7071068 255 255 255 255 0.291667 0.5
1.704586 0.571306 -1 0.5773503 0.5773503 -0.5773503 255 255 255 255 0.375 0.5
1.704586 -0.571306 -1 0.5773503 -0.5773503 -0.5773503 255 255 255 255 0.375 0.75
0.745483 -0.571306 -1 0 -0.7071047 -0.7071089 255 255 255 255 0.291667 0.75
-0.745483 0.571306 1 -0.3015113 0.904534 0.3015113 255 255 255 255 0.791667 0.5
-0.948588 0.486906 1 0.3015113 0.3015113 0.9045341 255 255 255 255 0.809314 0.518466
-0.948588 0.15948 1 0.5773503 -0.5773503 -0.5773503 255 255 255 255 0.809314 0.590106
-1.50114 0.15948 1 -0.5773503 -0.5773503 -0.5773503 255 255 255 255 0.857323 0.590106
-0.745483 -0.571306 -0.840225 0 -1 0 255 255 255 255 0.4375 0.916667
-0.745483 -0.571306 -0.223217 0 1 0 255 255 255 255 0.468388 0.916667
-0.788444 -0.571306 -0.062887 -0.7571207 0.6532751 2.45378e-07 255 255 255 255 0.476414 0.920399
-0.745483 -0.571306 0.097443 0 1 0 255 255 255 255 0.48444 0.916667
-1.704586 -0.571306 -0.840225 -0.7071068 -0.7071068 0 255 255 255 255 0.4375 1
1.704586 0.571306 -0.840225 0.7071068 0.7071068 0 255 255 255 255 0.4375 0.5
1.704586 -0.571306 -0.840225 0.7071068 -0.7071068 0 255 255 255 255 0.4375 0.75
0.745483 0.571306 -0.840225 0 1 0 255 255 255 255 0.4375 0.416667
-1.704586 0.571306 -0.840225 -0.7071068 0.7071068 0 255 255 255 255 0.4375 0.25
-1.704586 -0.571306 -1 -0.5773503 -0.5773503 -0.5773503 255 255 255 255 0.375 0
-1.704586 0.571306 -1 -0.5773503 0.5773503 -0.5773503 255 255 255 255 0.375 0.25
-0.745483 -0.571306 -1 0 -0.7071068 -0.7071068 255 255 255 255 0.375 0.916667
0.745483 -0.571306 -0.840225 0 -1 0 255 255 255 255 0.4375 0.833333
0.041447 -0.571306 -0.840225 0 -1 0 255 255 255 255 0.4375 0.872683
0 -0.571306 -0.851331 -4.573222e-07 0.6532239 -0.7571648 255 255 255 255 0.433156 0.875
-0.041447 -0.571306 -0.840225 0 -1 0 255 255 255 255 0.4375 0.877317
-0.745483 0.571306 -0.840225 0 1 0 255 255 255 255 0.4375 0.333333
-0.745483 0.571306 -1 0 0.7071068 -0.7071068 255 255 255 255 0.375 0.333333
-0.745483 0.571306 0.40827 0 1 0 255 255 255 255 0.5 0.333333
0.745483 -0.571306 0.40827 0 -1 0 255 255 255 255 0.5 0.833333
0.745483 -0.571306 0.097443 0 1 0 255 255 255 255 0.48444 0.833333
0.788444 -0.571306 -0.062887 0.6377981 -0.7702036 -1.252766e-08 255 255 255 255 0.476414 0.829601
0.745483 -0.571306 -0.223217 0 1 0 255 255 255 255 0.468388 0.833333
0.682812 -0.571306 -0.457109 0.5523192 -0.7702323 -0.3188821 255 255 255 255 0.456679 0.836836
0.394222 -0.571306 -0.745699 0.3188822 -0.7702322 -0.5523193 255 255 255 255 0.442232 0.852966
0.745483 -0.571306 1 0.3015113 -0.9045341 0.3015113 255 255 255 255 0.708333 0.75
-0.62554 -0.571306 1 0 -1 0 255 255 255 255 0.625 0.909963
0.745483 -0.571306 1.168282 0.5773503 -0.5773503 0.5773503 255 255 255 255 0.625 0.833333
-0.745483 -0.571306 1.168282 -0.5773503 -0.5773503 0.5773503 255 255 255 255 0.625 0.916667
-0.605877 -0.571306 0.40827 0 -1 0 255 255 255 255 0.5 0.908864
-0.394222 -0.571306 0.619925 -0.3786115 0.6531569 0.6557739 255 255 255 255 0.544711 0.897034
0 -0.571306 0.725556 -4.424475e-07 0.6532277 0.7571616 255 255 255 255 0.567025 0.875
0.394222 -0.571306 0.619925 0.3785812 0.6532269 0.6557217 255 255 255 255 0.544711 0.852966
0.605877 -0.571306 0.40827 0 -1 0 255 255 255 255 0.5 0.841136
0.745483 0.571306 1.168282 0.5773503 0.5773503 0.5773503 255 255 255 255 0.708333 0.5
-0.745483 0.571306 1.168282 -0.5773503 0.5773503 0.5773503 255 255 255 255 0.791667 0.5
-0.394222 -0.571306 -0.745699 -0.37856 0.6532759 -0.6556851 255 255 255 255 0.416667 0.562531
0.682812 -0.571306 0.331335 0.6556848 0.653276 0.3785603 255 255 255 255 0.833333 0.562531
-0.682812 -0.571306 -0.457109 -0.6556848 0.653276 -0.3785603 255 255 255 255 0.333333 0.562531
-0.682812 -0.571306 0.331334 -0.6557581 0.6531782 0.3786022 255 255 255 255 0.166667 0.562531
1.065865 -0.086971 0.913581 -0.3785811 -0.6557218 -0.6532267 150 150 150 255 0.416667 0.558129
1.208672 -0.125236 0.913581 -6.395047e-07 -0.7571622 -0.6532269 150 150 150 255 0.5 0.558129
1.35148 -0.086971 0.913581 0.3785806 -0.6557223 -0.6532267 150 150 150 255 0.583333 0.558129
0.961323 0.017571 0.913581 -0.6557223 -0.3785807 -0.6532266 150 150 150 255 0.333333 0.558129
1.456022 0.017571 0.913581 0.6557222 -0.3785806 -0.6532267 150 150 150 255 0.666667 0.558129
-1.50114 0.486906 1 -0.3015113 0.3015113 0.904534 255 255 255 255 0.857323 0.518466
3 0 1 2 
3 0 2 3 
3 4 5 6 
3 4 6 7 
3 4 7 8 
3 4 8 9 
3 4 9 10 
3 4 10 11 
3 4 11 12 
3 4 12 13 
3 4 13 14 
3 4 14 15 
3 16 17 18 
3 16 18 19 
3 18 20 21 
3 18 21 22 
3 17 23 20 
3 17 20 18 
3 23 24 25 
3 23 25 20 
3 24 26 27 
3 24 27 25 
3 26 28 29 
3 26 29 27 
3 28 30 31 
3 28 31 29 
3 32 33 34 
3 32 34 35 
3 36 32 35 
3 36 35 37 
3 30 38 39 
3 30 39 31 
3 33 40 41 
3 33 41 34 
3 38 36 37 
3 38 37 39 
3 40 16 19 
3 40 19 41 
3 42 43 44 
3 42 44 45 
3 27 29 46 
3 27 46 47 
3 35 34 48 
3 35 48 43 
3 39 37 42 
3 39 42 49 
3 19 18 22 
3 19 22 50 
3 25 27 47 
3 25 47 51 
3 31 39 49 
3 31 49 52 
3 41 19 50 
3 41 50 53 
3 20 25 51 
3 20 51 21 
3 29 31 52 
3 29 52 46 
3 34 41 53 
3 34 53 48 
3 37 35 43 
3 37 43 42 
3 54 55 56 
3 54 56 57 
3 22 21 58 
3 22 58 59 
3 47 46 60 
3 47 60 61 
3 43 48 54 
3 43 54 44 
3 49 42 45 
3 49 45 62 
3 50 22 59 
3 50 59 63 
3 51 47 61 
3 51 61 64 
3 52 49 62 
3 52 62 65 
3 53 50 63 
3 53 63 55 
3 21 51 64 
3 21 64 58 
3 46 52 65 
3 46 65 60 
3 48 53 55 
3 48 55 54 
3 66 67 68 
3 66 68 69 
3 45 44 70 
3 45 70 71 
3 59 58 72 
3 59 72 73 
3 61 60 66 
3 61 66 74 
3 44 54 57 
3 44 57 70 
3 62 45 71 
3 62 71 75 
3 63 59 73 
3 63 73 76 
3 64 61 74 
3 64 74 77 
3 65 62 75 
3 65 75 67 
3 55 63 76 
3 55 76 56 
3 58 64 77 
3 58 77 72 
3 60 65 67 
3 60 67 66 
3 69 68 78 
3 69 78 79 
3 57 56 80 
3 57 80 81 
3 71 70 82 
3 71 82 83 
3 73 72 84 
3 73 84 85 
3 74 66 69 
3 74 69 86 
3 70 57 81 
3 70 81 82 
3 75 71 83 
3 75 83 87 
3 76 73 85 
3 76 85 88 
3 77 74 86 
3 77 86 89 
3 67 75 87 
3 67 87 68 
3 56 76 88 
3 56 88 80 
3 72 77 89 
3 72 89 84 
3 90 91 92 
3 90 92 93 
3 81 80 94 
3 81 94 95 
3 83 82 96 
3 83 96 97 
3 85 84 90 
3 85 90 98 
3 86 69 79 
3 86 79 99 
3 82 81 95 
3 82 95 96 
3 87 83 97 
3 87 97 100 
3 88 85 98 
3 88 98 101 
3 89 86 99 
3 89 99 91 
3 68 87 100 
3 68 100 78 
3 80 88 101 
3 80 101 94 
3 84 89 91 
3 84 91 90 
3 93 92 102 
3 93 102 103 
3 79 78 104 
3 79 104 105 
3 95 94 106 
3 95 106 107 
3 97 96 108 
3 97 108 109 
3 98 90 93 
3 98 93 110 
3 99 79 105 
3 99 105 111 
3 96 95 107 
3 96 107 108 
3 100 97 109 
3 100 109 112 
3 101 98 110 
3 101 110 113 
3 91 99 111 
3 91 111 92 
3 78 100 112 
3 78 112 104 
3 94 101 113 
3 94 113 106 
3 114 115 116 
3 114 116 117 
3 105 104 118 
3 105 118 119 
3 107 106 114 
3 107 114 120 
3 109 108 121 
3 109 121 122 
3 110 93 103 
3 110 103 123 
3 111 105 119 
3 111 119 124 
3 108 107 120 
3 108 120 121 
3 112 109 122 
3 112 122 125 
3 113 110 123 
3 113 123 115 
3 92 111 124 
3 92 124 102 
3 104 112 125 
3 104 125 118 
3 106 113 115 
3 106 115 114 
3 126 127 128 
3 126 128 129 
3 103 102 130 
3 103 130 131 
3 119 118 126 
3 119 126 132 
3 120 114 117 
3 120 117 133 
3 122 121 134 
3 122 134 135 
3 123 103 131 
3 123 131 136 
3 124 119 132 
3 124 132 137 
3 121 120 133 
3 121 133 134 
3 125 122 135 
3 125 135 127 
3 115 123 136 
3 115 136 116 
3 102 124 137 
3 102 137 130 
3 118 125 127 
3 118 127 126 
3 129 128 138 
3 129 138 139 
3 117 116 140 
3 117 140 141 
3 131 130 142 
3 131 142 143 
3 132 126 129 
3 132 129 144 
3 133 117 141 
3 133 141 145 
3 135 134 146 
3 135 146 147 
3 136 131 143 
3 136 143 148 
3 137 132 144 
3 137 144 149 
3 134 133 145 
3 134 145 146 
3 127 135 147 
3 127 147 128 
3 116 136 148 
3 116 148 140 
3 130 137 149 
3 130 149 142 
3 150 151 152 
3 150 152 153 
3 141 140 154 
3 141 154 155 
3 143 142 150 
3 143 150 156 
3 144 129 139 
3 144 139 157 
3 145 141 155 
3 145 155 158 
3 147 146 159 
3 147 159 160 
3 148 143 156 
3 148 156 161 
3 149 144 157 
3 149 157 151 
3 146 145 158 
3 146 158 159 
3 128 147 160 
3 128 160 138 
3 140 148 161 
3 140 161 154 
3 142 149 151 
3 142 151 150 
3 153 152 162 
3 153 162 163 
3 139 138 164 
3 139 164 165 
3 155 154 166 
3 155 166 167 
3 156 150 153 
3 156 153 168 
3 157 139 165 
3 157 165 169 
3 158 155 167 
3 158 167 170 
3 160 159 171 
3 160 171 172 
3 161 156 168 
3 161 168 173 
3 151 157 169 
3 151 169 152 
3 159 158 170 
3 159 170 171 
3 138 160 172 
3 138 172 164 
3 154 161 173 
3 154 173 166 
3 174 175 176 
3 174 176 177 
3 174 177 178 
3 174 178 179 
3 174 179 180 
3 174 180 163 
3 174 163 162 
3 174 162 181 
3 174 181 182 
3 174 182 183 
3 165 164 183 
3 165 183 182 
3 167 166 178 
3 167 178 177 
3 168 153 163 
3 168 163 180 
3 169 165 182 
3 169 182 181 
3 170 167 177 
3 170 177 176 
3 172 171 175 
3 172 175 174 
3 173 168 180 
3 173 180 179 
3 152 169 181 
3 152 181 162 
3 171 170 176 
3 171 176 175 
3 164 172 174 
3 164 174 183 
3 166 173 179 
3 166 179 178 
3 184 185 186 
3 184 186 187 
3 185 188 189 
3 185 189 190 
3 185 190 186 
3 184 191 188 
3 184 188 185 
3 186 190 192 
3 186 192 187 
3 193 194 195 
3 193 195 196 
3 194 197 198 
3 194 198 195 
3 197 199 200 
3 197 200 198 
3 199 201 202 
3 199 202 200 
3 201 203 204 
3 201 204 202 
3 203 205 206 
3 203 206 204 
3 205 207 208 
3 205 208 206 
3 207 209 210 
3 207 210 208 
3 209 211 212 
3 209 212 210 
3 211 213 214 
3 211 214 212 
3 213 215 216 
3 213 216 214 
3 215 193 196 
3 215 196 216 
3 193 215 213 
3 193 213 211 
3 193 211 217 
3 193 217 218 
3 193 218 219 
3 193 219 220 
3 193 220 221 
3 193 221 222 
3 193 222 223 
3 193 223 199 
3 193 199 197 
3 193 197 194 
3 224 225 226 
3 224 226 227 
3 228 229 230 
3 228 230 231 
3 231 230 232 
3 231 232 233 
3 234 235 225 
3 234 225 224 
3 236 237 238 
3 236 238 239 
3 240 241 242 
3 240 242 243 
3 240 243 226 
3 240 226 225 
3 240 225 235 
3 244 245 246 
3 244 246 247 
3 244 247 234 
3 244 234 224 
3 244 224 248 
3 249 231 233 
3 249 233 250 
3 251 228 231 
3 251 231 249 
3 248 224 227 
3 248 227 252 
3 253 248 252 
3 253 252 254 
3 236 251 249 
3 236 249 237 
3 237 249 250 
3 237 250 238 
3 255 244 248 
3 255 248 253 
3 238 250 256 
3 238 256 239 
3 239 256 257 
3 239 257 258 
3 239 258 259 
3 239 259 244 
3 239 244 255 
3 254 252 260 
3 254 260 261 
3 261 260 251 
3 261 251 236 
3 252 227 262 
3 252 262 260 
3 260 262 228 
3 260 228 251 
3 250 233 263 
3 250 263 264 
3 250 264 265 
3 250 265 266 
3 250 266 256 
3 256 266 267 
3 256 267 268 
3 256 268 257 
3 230 200 202 
3 230 202 204 
3 230 204 206 
3 230 206 208 
3 230 208 210 
3 230 210 212 
3 230 212 229 
3 230 229 269 
3 230 269 232 
3 235 270 192 
3 235 192 190 
3 235 190 189 
3 235 189 269 
3 235 269 271 
3 235 271 272 
3 254 261 255 
3 254 255 253 
3 261 236 239 
3 261 239 255 
3 233 232 269 
3 233 269 263 
3 263 269 189 
3 263 189 188 
3 263 188 191 
3 263 191 270 
3 263 270 235 
3 263 235 234 
3 263 234 273 
3 263 273 274 
3 263 274 275 
3 263 275 276 
3 263 276 277 
3 227 226 240 
3 227 240 262 
3 262 240 229 
3 262 229 228 
3 278 279 272 
3 278 272 271 
3 229 240 279 
3 229 279 278 
3 240 235 272 
3 240 272 279 
3 269 229 278 
3 269 278 271 
3 229 212 214 
3 229 214 216 
3 229 216 196 
3 229 196 195 
3 229 195 198 
3 229 198 200 
3 229 200 230 
3 191 184 187 
3 191 187 192 
3 191 192 270 
3 280 259 258 
3 280 258 24 
3 280 24 23 
3 258 257 268 
3 258 268 26 
3 258 26 24 
3 265 264 281 
3 265 281 38 
3 265 38 30 
3 282 280 23 
3 282 23 17 
3 267 266 265 
3 267 265 30 
3 267 30 28 
3 246 245 282 
3 246 282 17 
3 246 17 16 
3 283 247 246 
3 283 246 16 
3 283 16 40 
3 259 280 282 
3 259 282 245 
3 259 245 244 
3 247 283 273 
3 247 273 234 
3 277 281 264 
3 277 264 263 
3 274 273 283 
3 274 283 40 
3 274 40 33 
3 276 275 32 
3 276 32 36 
3 275 274 33 
3 275 33 32 
3 281 277 276 
3 281 276 36 
3 281 36 38 
3 268 267 28 
3 268 28 26 
3 284 285 11 
3 284 11 10 
3 285 286 12 
3 285 12 11 
3 223 222 15 
3 223 15 14 
3 287 284 10 
3 287 10 9 
3 288 223 14 
3 288 14 13 
3 217 287 9 
3 217 9 8 
3 218 217 8 
3 218 8 7 
3 219 218 7 
3 219 7 6 
3 199 223 288 
3 199 288 286 
3 199 286 285 
3 199 285 284 
3 199 284 287 
3 199 287 217 
3 199 217 211 
3 199 211 209 
3 199 209 207 
3 199 207 205 
3 199 205 203 
3 199 203 201 
3 221 220 5 
3 221 5 4 
3 222 221 4 
3 222 4 15 
3 220 219 6 
3 220 6 5 
3 286 288 13 
3 286 13 12 
3 242 241 0 
3 242 0 3 
3 226 243 289 
3 226 289 241 
3 226 241 240 
3 241 289 1 
3 241 1 0 
3 289 243 2 
3 289 2 1 
3 243 242 3 
3 243 3 2 
