ply
format ascii 1.0
comment VCGLIB generated
element vertex 251
property float x
property float y
property float z
property float nx
property float ny
property float nz
property uchar red
property uchar green
property uchar blue
property uchar alpha
property float texture_u
property float texture_v
element face 340
property list uchar int vertex_indices
end_header
0.1677106 0.2699378 0.1129977 0.6981028 -0.2274615 0.6789063 255 255 255 255 0.157998 0.926266
0.1801921 0.07657757 0.0132856 0.9205834 0.3412057 -0.1900128 255 255 255 255 0.157998 0.926266
0.1677106 0.2846201 0.06801603 0.6980968 0.2168392 -0.6823794 255 255 255 255 0.157998 0.926266
0.1677106 -0.2846219 -0.06801346 0.6980968 -0.2168392 0.6823794 255 255 255 255 0.157998 0.926266
0.1801921 -0.06966967 -0.03445039 0.9205816 -0.1633998 -0.3547253 255 255 255 255 0.157998 0.926266
0.1801921 -0.0765794 -0.01328304 0.9205834 -0.3412057 0.1900128 255 255 255 255 0.157998 0.926266
0.1677106 0.1519664 0.250082 0.6980998 -0.5830725 0.4155518 255 255 255 255 0.157998 0.926266
0.07889907 0.05547291 0.1057172 0.2163493 -0.4969097 0.840401 255 255 255 255 0.157998 0.926266
0.1801921 0.03611247 0.06882342 0.9205849 -0.07629806 0.3830173 255 255 255 255 0.157998 0.926266
0.1677106 -0.1908827 0.2218095 0.6980984 -0.5753801 -0.4261413 255 255 255 255 0.157998 0.926266
0.1801921 -0.03629873 0.06872479 0.9205816 0.07526077 0.38323 255 255 255 255 0.157998 0.926266
0.1677106 -0.1526385 0.2496743 0.6980944 0.581969 0.4171046 255 255 255 255 0.157998 0.926266
0.1677106 0.1526385 -0.2496736 0.6980944 -0.581969 -0.4171046 255 255 255 255 0.157998 0.926266
0.1801921 0.05429336 -0.05561335 0.9205776 0.3878674 -0.04577887 255 255 255 255 0.157998 0.926266
0.1801921 0.03629873 -0.06872405 0.9205816 -0.07526077 -0.38323 255 255 255 255 0.157998 0.926266
0.1677106 -0.02405114 0.2916449 0.698093 -0.7159773 -0.006531122 255 255 255 255 0.157998 0.926266
0.07889907 -0.01725985 0.1181357 0.2163228 -0.8959942 0.3878129 255 255 255 255 0.157998 0.926266
0.1801921 -0.01123597 0.07690646 0.9205763 -0.2868791 0.2650277 255 255 255 255 0.157998 0.926266
0.07889907 0.1071601 -0.05263312 0.2163205 0.09454839 -0.9717336 255 255 255 255 0.157998 0.926266
0.1801921 0.06975987 -0.03426303 0.9205884 0.1643471 -0.3542699 255 255 255 255 0.157998 0.926266
0.1801921 0.0541445 0.05575891 0.920577 0.3877451 0.04681586 255 255 255 255 0.157998 0.926266
0.1677106 0.1902844 0.2223214 0.6980941 0.5765366 -0.4245825 255 255 255 255 0.157998 0.926266
0.1677106 -0.1519683 -0.2500809 0.6980998 0.5830725 -0.4155518 255 255 255 255 0.157998 0.926266
0.1801921 -0.05414597 -0.05575781 0.920577 -0.3877451 -0.04681586 255 255 255 255 0.157998 0.926266
0.1677106 -0.1902862 -0.2223206 0.6980941 -0.5765366 0.4245825 255 255 255 255 0.157998 0.926266
0.1677106 -0.2699397 -0.1129951 0.6981028 0.2274615 -0.6789063 255 255 255 255 0.157998 0.926266
0.07889907 -0.1070204 -0.05291912 0.2163213 -0.09195468 -0.9719822 255 255 255 255 0.157998 0.926266
0.1677106 0.02404931 -0.2916438 0.698093 0.7159773 0.006531122 255 255 255 255 0.157998 0.926266
0.07889907 0.01725948 -0.1181346 0.2163228 0.8959942 -0.3878129 255 255 255 255 0.157998 0.926266
0.1801921 0.0112356 -0.07690389 0.9205763 0.2868791 -0.2650277 255 255 255 255 0.157998 0.926266
0.1677106 0.2848016 -0.06724897 0.6980964 0.2150081 0.682959 255 255 255 255 0.157998 0.926266
0.1677106 0.2702407 -0.1122709 0.6981028 -0.2256304 -0.6795171 255 255 255 255 0.157998 0.926266
0.1677106 -0.2848034 0.06725007 0.6980964 -0.2150081 -0.682959 255 255 255 255 0.157998 0.926266
0.1801921 -0.0697617 0.03426376 0.9205786 -0.1643453 0.3542961 255 255 255 255 0.157998 0.926266
0.1677106 -0.2702425 0.1122717 0.6981028 0.2256304 0.6795171 255 255 255 255 0.157998 0.926266
0.07889907 -0.1176315 -0.02040507 0.2163529 -0.6476846 0.7305452 255 255 255 255 0.157998 0.926266
0.0142001 -0.287098 -0.06042688 0.05179033 -0.2482086 0.9673212 255 255 255 255 0.157998 0.926266
0.1801921 0.01102954 0.0769358 0.920583 0.2861491 0.2657926 255 255 255 255 0.157998 0.926266
0.1677106 0.02326649 0.2917095 0.6981004 0.715985 -0.004608135 255 255 255 255 0.157998 0.926266
0.1801921 -0.01103137 -0.0769347 0.920583 -0.2861491 -0.2657926 255 255 255 255 0.157998 0.926266
0.1677106 -0.02326832 -0.2917087 0.6981004 -0.715985 0.004608135 255 255 255 255 0.157998 0.926266
0.1801921 0.07661277 -0.01307844 0.9205857 0.3406875 0.1909293 255 255 255 255 0.157998 0.926266
0.07889907 0.1176315 0.02040763 0.2163185 0.6476747 -0.7305641 255 255 255 255 0.157998 0.926266
0.1801921 0 1.099984e-06 1 0 0 255 255 255 255 0.157998 0.926266
0.1801921 -0.0766146 0.01307954 0.9205857 -0.3406875 -0.1909293 255 255 255 255 0.157998 0.926266
0.1801921 0.06966784 0.03445149 0.9205816 0.1633998 0.3547253 255 255 255 255 0.157998 0.926266
0.1801921 -0.0542952 0.05561445 0.9205776 -0.3878674 0.04577887 255 255 255 255 0.157998 0.926266
0.1801921 -0.0361143 -0.06882232 0.9205739 0.07629716 -0.3830438 255 255 255 255 0.157998 0.926266
0.07889907 -0.05575781 0.1055695 0.2163472 0.4946466 0.8417355 255 255 255 255 0.157998 0.926266
0.0142001 -0.1461904 0.2543727 0.05179057 0.8432664 0.534995 255 255 255 255 0.157998 0.926266
0.07889907 -0.01694305 -0.1181793 0.2163208 -0.8949488 -0.3902204 255 255 255 255 0.157998 0.926266
0.0142001 -0.03124687 -0.2917193 0.05179032 -0.996679 0.06283838 255 255 255 255 0.157998 0.926266
0.07889907 0.1070185 0.05292169 0.2163213 0.09195468 0.9719822 255 255 255 255 0.157998 0.926266
0.07889907 0.0831705 0.08565243 0.2163211 0.9533951 -0.21034 255 255 255 255 0.157998 0.926266
0.07889907 -0.05547475 -0.1057161 0.2163198 0.496913 -0.8404066 255 255 255 255 0.157998 0.926266
0.07889907 -0.1071619 0.05263386 0.21635 -0.09454775 0.971727 255 255 255 255 0.157998 0.926266
0.0142001 -0.2677867 0.1198641 0.05179083 0.3677539 0.9284799 255 255 255 255 0.157998 0.926266
0.07889907 0.01694122 0.1181819 0.2163208 0.8949488 0.3902204 255 255 255 255 0.157998 0.926266
0.0142001 0.03124687 0.2917204 0.05179041 0.9966809 -0.0628075 255 255 255 255 0.157998 0.926266
0.0142001 0.2677863 -0.1198634 0.05179083 -0.3677539 -0.9284799 255 255 255 255 0.157998 0.926266
0.07889907 0.05575744 -0.1055687 0.2163472 -0.4946466 -0.8417355 255 255 255 255 0.157998 0.926266
0.07889907 -0.08317234 -0.08565134 0.2163211 -0.9533951 0.21034 255 255 255 255 0.157998 0.926266
0.0142001 -0.1967482 -0.2176391 0.05179169 -0.7693971 0.6366677 255 255 255 255 0.157998 0.926266
0.07889907 -0.0834015 0.08542804 0.2163172 -0.9528278 -0.2128992 255 255 255 255 0.157998 0.926266
0.0142001 0.1461886 -0.2543716 0.05179057 -0.8432664 -0.534995 255 255 255 255 0.157998 0.926266
0.1677106 0.1908811 -0.2218084 0.6981077 0.5753878 0.4261158 255 255 255 255 0.157998 0.926266
0.07889907 0.08340114 -0.08542694 0.2163186 0.9528339 0.2128706 255 255 255 255 0.157998 0.926266
0.07889907 0.1176854 -0.02008974 0.2163214 0.6457301 0.7322826 255 255 255 255 0.157998 0.926266
0.07889907 -0.1176869 0.02009084 0.2163208 -0.6456974 -0.7323117 255 255 255 255 0.157998 0.926266
0.0142001 0.2870959 0.06042944 0.05179033 0.2482086 -0.9673212 255 255 255 255 0.157998 0.926266
0.0142001 0.1967466 0.2176402 0.05179169 0.7693971 -0.6366677 255 255 255 255 0.157998 0.926266
0.1919431 0.4999998 -3.666613e-07 0.6788681 0.7342603 0 255 255 255 255 0.103011 0.959979
-0.1919431 0.4829616 -0.1294091 -0.6807562 0.7075515 -0.1895838 255 255 255 255 0.103011 0.959979
-0.1919431 0.4999998 -3.666613e-07 -0.6807533 0.7325128 0 255 255 255 255 0.103011 0.959979
0.1919431 0.4330125 -0.2499995 0.6788814 0.6358786 -0.3671218 255 255 255 255 0.103011 0.959979
-0.1919431 0.4330125 -0.2499995 -0.6807575 0.6343687 -0.3662592 255 255 255 255 0.103011 0.959979
0.1919431 0.3535528 -0.3535531 0.6788742 0.5191965 -0.5191965 255 255 255 255 0.103011 0.959979
-0.1919431 0.3535528 -0.3535531 -0.6807528 0.5179651 -0.5179651 255 255 255 255 0.103011 0.959979
-0.1919431 0.249999 -0.433013 -0.6807575 0.3662592 -0.6343687 255 255 255 255 0.103011 0.959979
0.1919431 0.249999 -0.433013 0.6788814 0.3671218 -0.6358786 255 255 255 255 0.103011 0.959979
-0.1919431 0.1294087 -0.4829618 -0.6807562 0.1895838 -0.7075515 255 255 255 255 0.103011 0.959979
0.1919431 0.1294087 -0.4829618 0.6788708 0.1900437 -0.7092375 255 255 255 255 0.103011 0.959979
-0.1919431 0 -0.5000002 -0.6807533 0 -0.7325128 255 255 255 255 0.103011 0.959979
0.1919431 0 -0.5000002 0.6788681 0 -0.7342603 255 255 255 255 0.103011 0.959979
-0.1919431 -0.1294105 -0.4829618 -0.6807562 -0.1895838 -0.7075515 255 255 255 255 0.103011 0.959979
0.1919431 -0.1294105 -0.4829618 0.6788708 -0.1900437 -0.7092375 255 255 255 255 0.103011 0.959979
-0.1919431 -0.250001 -0.433013 -0.6807575 -0.3662592 -0.6343687 255 255 255 255 0.103011 0.959979
0.1919431 -0.250001 -0.433013 0.6788814 -0.3671218 -0.6358786 255 255 255 255 0.103011 0.959979
-0.1919431 -0.3535546 -0.3535531 -0.6807528 -0.5179651 -0.5179651 255 255 255 255 0.103011 0.959979
0.1919431 -0.4330126 -0.2499995 0.6788814 -0.6358786 -0.3671218 255 255 255 255 0.103011 0.959979
-0.1919431 -0.4330126 -0.2499995 -0.6807575 -0.6343687 -0.3662592 255 255 255 255 0.103011 0.959979
0.1919431 -0.4829633 -0.1294091 0.6788748 -0.7092417 -0.1900138 255 255 255 255 0.103011 0.959979
-0.1919431 -0.4829633 -0.1294091 -0.6807562 -0.7075515 -0.1895838 255 255 255 255 0.103011 0.959979
0.1919431 -0.5000002 -3.666613e-07 0.6788681 -0.7342603 0 255 255 255 255 0.103011 0.959979
-0.1919431 -0.5000002 -3.666613e-07 -0.6807533 -0.7325128 0 255 255 255 255 0.103011 0.959979
-0.1919431 -0.4829633 0.1294102 -0.6807562 -0.7075515 0.1895838 255 255 255 255 0.103011 0.959979
0.1919431 -0.4829633 0.1294102 0.6788748 -0.7092417 0.1900138 255 255 255 255 0.103011 0.959979
-0.1919431 -0.4330126 0.2500003 -0.6807575 -0.6343687 0.3662592 255 255 255 255 0.103011 0.959979
0.1919431 -0.4330126 0.2500003 0.678868 -0.6358971 0.3671146 255 255 255 255 0.103011 0.959979
-0.1919431 -0.3535546 0.3535542 -0.6807528 -0.5179651 0.5179651 255 255 255 255 0.103011 0.959979
0.1919431 -0.3535546 0.3535542 0.6788742 -0.5191965 0.5191965 255 255 255 255 0.103011 0.959979
-0.1919431 -0.250001 0.4330123 -0.6807575 -0.3662592 0.6343687 255 255 255 255 0.103011 0.959979
0.1919431 -0.250001 0.4330123 0.6788814 -0.3671218 0.6358786 255 255 255 255 0.103011 0.959979
-0.1919431 -0.1294105 0.4829629 -0.6807562 -0.1895838 0.7075515 255 255 255 255 0.103011 0.959979
0.1919431 0 0.4999998 0.6788681 0 0.7342603 255 255 255 255 0.103011 0.959979
-0.1919431 0 0.4999998 -0.6807533 0 0.7325128 255 255 255 255 0.103011 0.959979
-0.1919431 0.1294087 0.4829629 -0.6807562 0.1895838 0.7075515 255 255 255 255 0.103011 0.959979
0.1919431 0.1294087 0.4829629 0.6788748 0.1900138 0.7092417 255 255 255 255 0.103011 0.959979
-0.1919431 0.249999 0.4330123 -0.6807575 0.3662592 0.6343687 255 255 255 255 0.103011 0.959979
0.1919431 0.249999 0.4330123 0.6788814 0.3671218 0.6358786 255 255 255 255 0.103011 0.959979
-0.1919431 0.3535528 0.3535542 -0.6807528 0.5179651 0.5179651 255 255 255 255 0.103011 0.959979
0.1919431 0.3535528 0.3535542 0.6788742 0.5191965 0.5191965 255 255 255 255 0.103011 0.959979
-0.1919431 0.4330125 0.2500003 -0.6807575 0.6343687 0.3662592 255 255 255 255 0.103011 0.959979
-0.1891703 0 -3.666613e-07 -1 0 0 255 255 255 255 0.103011 0.959979
0.1919431 0.4829616 0.1294102 0.6788748 0.7092417 0.1900138 255 255 255 255 0.103011 0.959979
-0.1919431 0.4829616 0.1294102 -0.6807562 0.7075515 0.1895838 255 255 255 255 0.103011 0.959979
0.1919431 -0.1942986 0.1942982 0.7377089 0.4773813 -0.4773813 255 255 255 255 0.157998 0.926266
-0.04308164 -0.1373905 0.237965 0.6788814 0.3671218 -0.6358786 255 255 255 255 0.157998 0.926266
0.1919431 -0.1373905 0.237965 0.7377061 0.337541 -0.5846844 255 255 255 255 0.157998 0.926266
0.1919431 0.2315552 -0.2315557 1 0 0 255 255 255 255 0.157998 0.926266
0.1919431 0.1373887 -0.2379639 0.7377061 -0.337541 0.5846844 255 255 255 255 0.157998 0.926266
0.1919431 0.1637344 -0.2835963 1 0 0 255 255 255 255 0.157998 0.926266
0.1919431 -0.3163117 0.08475595 1 0 0 255 255 255 255 0.157998 0.926266
0.1919431 -0.2747792 -3.666613e-07 0.7377111 0.6751165 0 255 255 255 255 0.157998 0.926266
0.1919431 -0.2654151 0.07111798 0.7377012 0.6521272 -0.1747199 255 255 255 255 0.157998 0.926266
0.1919431 0.2315552 0.2315565 1 0 0 255 255 255 255 0.157998 0.926266
0.1919431 0.2379635 0.1373887 0.7377061 -0.5846844 -0.337541 255 255 255 255 0.157998 0.926266
0.1919431 0.2835958 0.1637355 1 0 0 255 255 255 255 0.157998 0.926266
0.1919431 -0.2315568 -0.2315557 1 0 0 255 255 255 255 0.157998 0.926266
0.1919431 -0.1373905 -0.2379639 0.7377061 0.337541 0.5846844 255 255 255 255 0.157998 0.926266
0.1919431 -0.1942986 -0.1942971 0.7377089 0.4773813 0.4773813 255 255 255 255 0.157998 0.926266
0.1919431 -0.08475631 0.316311 1 0 0 255 255 255 255 0.157998 0.926266
0.1919431 0 0.2747774 0.7377111 0 -0.6751165 255 255 255 255 0.157998 0.926266
0.1919431 0 0.3274699 1 0 0 255 255 255 255 0.157998 0.926266
0.1919431 0.07111651 -0.2654155 0.7377012 -0.1747199 0.6521272 255 255 255 255 0.157998 0.926266
0.1919431 0.08475448 -0.3163117 1 0 0 255 255 255 255 0.157998 0.926266
0.1919431 -0.2379654 0.1373887 0.7377061 0.5846844 -0.337541 255 255 255 255 0.157998 0.926266
0.1919431 -0.2835974 0.163734 1 0 0 255 255 255 255 0.157998 0.926266
0.1919431 0.2654149 0.07111798 0.7377012 -0.6521272 -0.1747199 255 255 255 255 0.157998 0.926266
0.1919431 0.3163113 0.08475595 1 0 0 255 255 255 255 0.157998 0.926266
0.1919431 0.3163113 -0.08475485 1 0 0 255 255 255 255 0.157998 0.926266
0.1919431 0.2747776 -3.666613e-07 0.7377111 -0.6751165 0 255 255 255 255 0.157998 0.926266
0.1919431 0.2654149 -0.07111689 0.7377012 -0.6521272 0.1747199 255 255 255 255 0.157998 0.926266
0.1919431 -0.2379654 -0.1373891 0.7377061 0.5846844 0.337541 255 255 255 255 0.157998 0.926266
0.1919431 -0.2835974 -0.1637348 1 0 0 255 255 255 255 0.157998 0.926266
0.1919431 0.08475448 0.316311 1 0 0 255 255 255 255 0.157998 0.926266
0.1919431 0.07111651 0.2654147 0.7377012 -0.1747199 -0.6521272 255 255 255 255 0.157998 0.926266
0.1919431 0 -0.2747778 0.7377111 0 0.6751165 255 255 255 255 0.157998 0.926266
0.1919431 0 -0.3274692 1 0 0 255 255 255 255 0.157998 0.926266
0.1919431 -0.2315568 0.2315565 1 0 0 255 255 255 255 0.157998 0.926266
0.1919431 0.3274687 -3.666613e-07 1 0 0 255 255 255 255 0.157998 0.926266
0.1919431 0.2835958 -0.1637348 1 0 0 255 255 255 255 0.157998 0.926266
0.1919431 0.2379635 -0.1373891 0.7377061 -0.5846844 0.337541 255 255 255 255 0.157998 0.926266
0.1919431 -0.2654151 -0.07111689 0.7377012 0.6521272 0.1747199 255 255 255 255 0.157998 0.926266
0.1919431 -0.3163117 -0.08475485 1 0 0 255 255 255 255 0.157998 0.926266
0.1919431 0.1637344 0.2835971 1 0 0 255 255 255 255 0.157998 0.926266
0.1919431 0.1373887 0.237965 0.7376987 -0.3375676 -0.5846785 255 255 255 255 0.157998 0.926266
0.1919431 -0.08475631 -0.3163117 1 0 0 255 255 255 255 0.157998 0.926266
0.1919431 -0.07111835 -0.2654155 0.7377012 0.1747199 0.6521272 255 255 255 255 0.157998 0.926266
0.1919431 -0.1637359 0.2835971 1 0 0 255 255 255 255 0.157998 0.926266
0.1919431 0.1942967 -0.1942971 0.7377089 -0.4773813 0.4773813 255 255 255 255 0.157998 0.926266
0.1919431 -0.3274703 -3.666613e-07 1 0 0 255 255 255 255 0.157998 0.926266
0.1919431 0.1942967 0.1942982 0.7377089 -0.4773813 -0.4773813 255 255 255 255 0.157998 0.926266
0.1919431 -0.1637359 -0.2835963 1 0 0 255 255 255 255 0.157998 0.926266
0.1919431 -0.07111835 0.2654147 0.7377012 0.1747199 -0.6521272 255 255 255 255 0.157998 0.926266
-0.04308164 0.2379635 0.1373887 0.6788814 -0.6358786 -0.3671218 255 255 255 255 0.103011 0.959979
-0.04308164 0.1942967 0.1942982 0.6788742 -0.5191965 -0.5191965 255 255 255 255 0.103011 0.959979
-0.04308011 0 -3.666613e-07 1 0 0 255 255 255 255 0.103011 0.959979
-0.04308011 0.07111651 -0.2654155 0.6788708 -0.1900437 0.7092375 255 255 255 255 0.157998 0.926266
-0.04308164 0.1373887 0.237965 0.6788814 -0.3671218 -0.6358786 255 255 255 255 0.157998 0.926266
-0.04308011 -0.1373905 -0.2379639 0.6788814 0.3671218 0.6358786 255 255 255 255 0.157998 0.926266
-0.04308011 -0.1942986 -0.1942971 0.6788742 0.5191965 0.5191965 255 255 255 255 0.157998 0.926266
-0.04308011 0.2747776 -3.666613e-07 0.6788681 -0.7342603 0 255 255 255 255 0.157998 0.926266
-0.04308011 -0.2747792 -3.666613e-07 0.6788681 0.7342603 0 255 255 255 255 0.157998 0.926266
-0.04308164 -0.2654151 0.07111798 0.6788748 0.7092417 -0.1900138 255 255 255 255 0.157998 0.926266
-0.04308011 0.2379635 -0.1373891 0.678868 -0.6358971 0.3671146 255 255 255 255 0.157998 0.926266
-0.04308164 -0.07111835 0.2654147 0.6788708 0.1900437 -0.7092375 255 255 255 255 0.157998 0.926266
-0.04308011 0 -0.2747778 0.6788681 0 0.7342603 255 255 255 255 0.157998 0.926266
-0.04308164 0.1942967 0.1942982 0.6788742 -0.5191965 -0.5191965 255 255 255 255 0.157998 0.926266
-0.04308011 -0.2379654 -0.1373891 0.6788814 0.6358786 0.3671218 255 255 255 255 0.157998 0.926266
-0.04308164 -0.2379654 0.1373887 0.6788814 0.6358786 -0.3671218 255 255 255 255 0.157998 0.926266
-0.04308011 0.1942967 -0.1942971 0.6788742 -0.5191965 0.5191965 255 255 255 255 0.157998 0.926266
-0.04308164 0 0.2747774 0.6788681 0 -0.7342603 255 255 255 255 0.157998 0.926266
-0.04308011 -0.07111835 -0.2654155 0.6788708 0.1900437 0.7092375 255 255 255 255 0.157998 0.926266
-0.04308164 0.2379635 0.1373887 0.6788814 -0.6358786 -0.3671218 255 255 255 255 0.157998 0.926266
-0.04308011 -0.2654151 -0.07111689 0.6788708 0.7092375 0.1900437 255 255 255 255 0.157998 0.926266
-0.04308164 -0.1942986 0.1942982 0.6788742 0.5191965 -0.5191965 255 255 255 255 0.157998 0.926266
-0.04308011 0.1373887 -0.2379639 0.6788814 -0.3671218 0.6358786 255 255 255 255 0.157998 0.926266
-0.04308164 0.07111651 0.2654147 0.6788748 -0.1900138 -0.7092417 255 255 255 255 0.157998 0.926266
-0.04308164 0.2654149 0.07111798 0.6788748 -0.7092417 -0.1900138 255 255 255 255 0.157998 0.926266
-0.04308011 0.2654149 -0.07111689 0.6788748 -0.7092417 0.1900138 255 255 255 255 0.157998 0.926266
0.1919431 -0.08475631 0.316311 1 0 0 255 255 255 255 0.103011 0.959979
0.1919431 -0.1294105 0.4829629 0.6788748 -0.1900138 0.7092417 255 255 255 255 0.103011 0.959979
0.1919431 -0.1637359 -0.2835963 1 0 0 255 255 255 255 0.103011 0.959979
0.1919431 0.1637344 0.2835971 1 0 0 255 255 255 255 0.103011 0.959979
0.1919431 0.2315552 0.2315565 1 0 0 255 255 255 255 0.103011 0.959979
0.1919431 -0.3274703 -3.666613e-07 1 0 0 255 255 255 255 0.103011 0.959979
0.1919431 0.2315552 -0.2315557 1 0 0 255 255 255 255 0.103011 0.959979
0.1919431 -0.1637359 0.2835971 1 0 0 255 255 255 255 0.103011 0.959979
0.1919431 0 -0.3274692 1 0 0 255 255 255 255 0.103011 0.959979
0.1919431 -0.08475631 -0.3163117 1 0 0 255 255 255 255 0.103011 0.959979
0.1919431 0.08475448 0.316311 1 0 0 255 255 255 255 0.103011 0.959979
0.1919431 -0.2835974 -0.1637348 1 0 0 255 255 255 255 0.103011 0.959979
0.1919431 -0.3163117 -0.08475485 1 0 0 255 255 255 255 0.103011 0.959979
0.1919431 0.3163113 -0.08475485 1 0 0 255 255 255 255 0.103011 0.959979
0.1919431 0.2835958 -0.1637348 1 0 0 255 255 255 255 0.103011 0.959979
0.1919431 0.3274687 -3.666613e-07 1 0 0 255 255 255 255 0.103011 0.959979
0.1919431 -0.2315568 0.2315565 1 0 0 255 255 255 255 0.103011 0.959979
0.1919431 -0.2315568 -0.2315557 1 0 0 255 255 255 255 0.103011 0.959979
0.1919431 0.4829616 -0.1294091 0.6788748 0.7092417 -0.1900138 255 255 255 255 0.103011 0.959979
0.1919431 0.2835958 0.1637355 1 0 0 255 255 255 255 0.103011 0.959979
0.1919431 0.3163113 0.08475595 1 0 0 255 255 255 255 0.103011 0.959979
0.1919431 -0.2835974 0.163734 1 0 0 255 255 255 255 0.103011 0.959979
0.1919431 0.1637344 -0.2835963 1 0 0 255 255 255 255 0.103011 0.959979
0.1919431 0.08475448 -0.3163117 1 0 0 255 255 255 255 0.103011 0.959979
0.1919431 0 0.3274699 1 0 0 255 255 255 255 0.103011 0.959979
0.1919431 -0.3535546 -0.3535531 0.6788742 -0.5191965 -0.5191965 255 255 255 255 0.103011 0.959979
0.1919431 0.4330125 0.2500003 0.6788814 0.6358786 0.3671218 255 255 255 255 0.103011 0.959979
0.1919431 -0.3163117 0.08475595 1 0 0 255 255 255 255 0.103011 0.959979
-0.04308164 -0.1942986 0.1942982 0.6788742 0.5191965 -0.5191965 255 255 255 255 0.103011 0.959979
-0.04308164 -0.2379654 0.1373887 0.6788814 0.6358786 -0.3671218 255 255 255 255 0.103011 0.959979
-0.04308011 -0.1373905 -0.2379639 0.6788814 0.3671218 0.6358786 255 255 255 255 0.103011 0.959979
-0.04308011 -0.07111835 -0.2654155 0.6788708 0.1900437 0.7092375 255 255 255 255 0.103011 0.959979
-0.04308164 0.2654149 0.07111798 0.6788748 -0.7092417 -0.1900138 255 255 255 255 0.103011 0.959979
-0.04308011 0.2654149 -0.07111689 0.6788748 -0.7092417 0.1900138 255 255 255 255 0.103011 0.959979
-0.04308011 0.2747776 -3.666613e-07 0.6788681 -0.7342603 0 255 255 255 255 0.103011 0.959979
-0.04308164 -0.1373905 0.237965 0.6788814 0.3671218 -0.6358786 255 255 255 255 0.103011 0.959979
-0.04308011 -0.1942986 -0.1942971 0.6788742 0.5191965 0.5191965 255 255 255 255 0.103011 0.959979
-0.04308011 0.2379635 -0.1373891 0.678868 -0.6358971 0.3671146 255 255 255 255 0.103011 0.959979
-0.04308164 -0.07111835 0.2654147 0.6788708 0.1900437 -0.7092375 255 255 255 255 0.103011 0.959979
-0.04308011 -0.2379654 -0.1373891 0.6788814 0.6358786 0.3671218 255 255 255 255 0.103011 0.959979
-0.04308011 0.1942967 -0.1942971 0.6788742 -0.5191965 0.5191965 255 255 255 255 0.103011 0.959979
-0.04308164 0 0.2747774 0.6788681 0 -0.7342603 255 255 255 255 0.103011 0.959979
-0.04308011 -0.2654151 -0.07111689 0.6788708 0.7092375 0.1900437 255 255 255 255 0.103011 0.959979
-0.04308011 0.1373887 -0.2379639 0.6788814 -0.3671218 0.6358786 255 255 255 255 0.103011 0.959979
-0.04308164 0.07111651 0.2654147 0.6788748 -0.1900138 -0.7092417 255 255 255 255 0.103011 0.959979
-0.04308011 -0.2747792 -3.666613e-07 0.6788681 0.7342603 0 255 255 255 255 0.103011 0.959979
-0.04308011 0.07111651 -0.2654155 0.6788708 -0.1900437 0.7092375 255 255 255 255 0.103011 0.959979
-0.04308164 0.1373887 0.237965 0.6788814 -0.3671218 -0.6358786 255 255 255 255 0.103011 0.959979
-0.04308164 -0.2654151 0.07111798 0.6788748 0.7092417 -0.1900138 255 255 255 255 0.103011 0.959979
-0.04308011 0 -0.2747778 0.6788681 0 0.7342603 255 255 255 255 0.103011 0.959979
0.0142001 0.145504 0.2547632 0.05179033 -0.8446963 0.5327343 255 255 255 255 0.157998 0.926266
0.0142001 -0.03202969 0.2916343 0.05179093 -0.9965081 -0.06549419 255 255 255 255 0.157998 0.926266
0.0142001 -0.2674636 -0.1205817 0.05179198 0.3702342 -0.9274935 255 255 255 255 0.157998 0.926266
0.0142001 0.03202933 -0.2916332 0.05179093 0.9965081 0.06549419 255 255 255 255 0.157998 0.926266
0.0142001 -0.1455058 -0.2547625 0.05179033 0.8446963 -0.5327343 255 255 255 255 0.157998 0.926266
0.0142001 -0.1973312 0.2171097 0.05179118 -0.7676805 -0.6387365 255 255 255 255 0.157998 0.926266
0.0142001 0.197331 -0.2171086 0.05179118 0.7676805 0.6387365 255 255 255 255 0.157998 0.926266
0.0142001 0.2872575 -0.05965652 0.05179138 0.2456195 0.9679818 255 255 255 255 0.157998 0.926266
0.0142001 -0.2872593 0.05965909 0.05179138 -0.2456195 -0.9679818 255 255 255 255 0.157998 0.926266
0.0142001 0.2674618 0.1205824 0.05179198 -0.3702342 0.9274935 255 255 255 255 0.157998 0.926266
3 0 1 2 
3 3 4 5 
3 6 7 8 
3 9 10 11 
3 12 13 14 
3 15 16 17 
3 13 18 19 
3 6 20 21 
3 22 23 24 
3 25 26 4 
3 27 28 29 
3 30 19 31 
3 32 33 34 
3 3 35 36 
3 15 37 38 
3 27 39 40 
3 41 42 1 
3 14 13 43 
3 19 41 43 
3 33 44 43 
3 1 45 43 
3 29 14 43 
3 46 33 43 
3 5 4 43 
3 44 5 43 
3 20 8 43 
3 41 1 43 
3 13 19 43 
3 23 47 43 
3 4 23 43 
3 37 17 43 
3 39 29 43 
3 10 46 43 
3 45 20 43 
3 47 39 43 
3 17 10 43 
3 8 37 43 
3 11 48 49 
3 44 35 5 
3 40 50 51 
3 20 52 53 
3 22 54 47 
3 34 55 56 
3 38 57 58 
3 31 18 59 
3 29 60 14 
3 24 61 62 
3 9 63 46 
3 23 26 61 
3 46 55 33 
3 12 60 64 
3 65 66 13 
3 39 54 50 
3 30 67 41 
3 17 48 10 
3 32 68 44 
3 2 42 69 
3 37 7 57 
3 21 53 70 
3 0 52 45 
3 71 72 73 
3 72 74 75 
3 75 76 77 
3 76 78 77 
3 79 80 78 
3 81 82 80 
3 83 84 82 
3 85 86 84 
3 87 88 86 
3 88 89 90 
3 90 91 92 
3 92 93 94 
3 93 95 94 
3 96 97 95 
3 98 99 97 
3 100 101 99 
3 102 103 101 
3 103 104 105 
3 104 106 105 
3 107 108 106 
3 109 110 108 
3 111 112 110 
3 94 95 113 
3 112 114 115 
3 114 73 115 
3 77 78 113 
3 116 117 118 
3 110 112 113 
3 119 120 121 
3 122 123 124 
3 125 126 127 
3 86 88 113 
3 103 105 113 
3 128 129 130 
3 131 132 133 
3 78 80 113 
3 95 97 113 
3 112 115 113 
3 73 72 113 
3 121 134 135 
3 122 136 137 
3 127 138 139 
3 140 141 142 
3 88 90 113 
3 105 106 113 
3 128 143 144 
3 145 132 146 
3 80 82 113 
3 97 99 113 
3 115 73 113 
3 135 147 148 
3 137 116 149 
3 150 138 141 
3 72 75 113 
3 90 92 113 
3 106 108 113 
3 151 142 152 
3 144 153 154 
3 155 146 156 
3 82 84 113 
3 99 101 113 
3 157 147 158 
3 159 116 118 
3 75 77 113 
3 92 94 113 
3 108 110 113 
3 151 160 119 
3 154 123 161 
3 125 156 162 
3 84 86 113 
3 101 103 113 
3 157 129 163 
3 159 164 131 
3 165 166 167 
3 120 168 134 
3 146 169 156 
3 130 170 171 
3 138 172 141 
3 124 173 174 
3 142 175 152 
3 118 176 164 
3 134 177 147 
3 156 178 162 
3 130 179 143 
3 124 180 136 
3 160 175 181 
3 132 176 182 
3 158 177 183 
3 162 184 126 
3 143 185 153 
3 136 186 116 
3 120 181 187 
3 132 188 146 
3 129 183 170 
3 126 189 138 
3 153 173 123 
3 141 190 142 
3 102 191 192 
3 85 193 87 
3 111 194 195 
3 91 196 93 
3 74 197 76 
3 100 198 102 
3 85 199 200 
3 109 201 194 
3 91 202 203 
3 74 204 205 
3 114 206 71 
3 98 207 100 
3 81 199 83 
3 104 201 107 
3 89 208 202 
3 209 206 204 
3 114 210 211 
3 96 212 98 
3 81 213 214 
3 104 191 215 
3 216 193 208 
3 111 210 217 
3 93 218 96 
3 76 213 79 
3 219 220 167 
3 221 222 167 
3 223 165 167 
3 224 225 167 
3 226 219 167 
3 227 221 167 
3 225 223 167 
3 228 224 167 
3 229 226 167 
3 230 227 167 
3 231 228 167 
3 232 229 167 
3 233 230 167 
3 234 231 167 
3 235 232 167 
3 236 233 167 
3 237 234 167 
3 238 235 167 
3 239 236 167 
3 240 237 167 
3 166 238 167 
3 220 239 167 
3 222 240 167 
3 0 45 1 
3 3 25 4 
3 6 241 7 
3 9 46 10 
3 12 65 13 
3 15 242 16 
3 13 66 18 
3 6 8 20 
3 22 47 23 
3 25 243 26 
3 27 244 28 
3 30 41 19 
3 32 44 33 
3 3 5 35 
3 15 17 37 
3 27 29 39 
3 41 67 42 
3 11 10 48 
3 44 68 35 
3 40 39 50 
3 20 45 52 
3 22 245 54 
3 34 33 55 
3 38 37 57 
3 31 19 18 
3 29 28 60 
3 24 23 61 
3 9 246 63 
3 23 4 26 
3 46 63 55 
3 12 14 60 
3 65 247 66 
3 39 47 54 
3 30 248 67 
3 17 16 48 
3 32 249 68 
3 2 1 42 
3 37 8 7 
3 21 20 53 
3 0 250 52 
3 71 209 72 
3 72 209 74 
3 75 74 76 
3 76 79 78 
3 79 81 80 
3 81 83 82 
3 83 85 84 
3 85 87 86 
3 87 216 88 
3 88 216 89 
3 90 89 91 
3 92 91 93 
3 93 96 95 
3 96 98 97 
3 98 100 99 
3 100 102 101 
3 102 192 103 
3 103 192 104 
3 104 107 106 
3 107 109 108 
3 109 111 110 
3 111 217 112 
3 112 217 114 
3 114 71 73 
3 116 186 117 
3 119 160 120 
3 122 161 123 
3 125 162 126 
3 128 163 129 
3 131 164 132 
3 121 120 134 
3 122 124 136 
3 127 126 138 
3 140 150 141 
3 128 130 143 
3 145 133 132 
3 135 134 147 
3 137 136 116 
3 150 139 138 
3 151 140 142 
3 144 143 153 
3 155 145 146 
3 157 148 147 
3 159 149 116 
3 151 152 160 
3 154 153 123 
3 125 155 156 
3 157 158 129 
3 159 118 164 
3 120 187 168 
3 146 188 169 
3 130 129 170 
3 138 189 172 
3 124 123 173 
3 142 190 175 
3 118 117 176 
3 134 168 177 
3 156 169 178 
3 130 171 179 
3 124 174 180 
3 160 152 175 
3 132 164 176 
3 158 147 177 
3 162 178 184 
3 143 179 185 
3 136 180 186 
3 120 160 181 
3 132 182 188 
3 129 158 183 
3 126 184 189 
3 153 185 173 
3 141 172 190 
3 102 198 191 
3 85 200 193 
3 111 109 194 
3 91 203 196 
3 74 205 197 
3 100 207 198 
3 85 83 199 
3 109 107 201 
3 91 89 202 
3 74 209 204 
3 114 211 206 
3 98 212 207 
3 81 214 199 
3 104 215 201 
3 89 216 208 
3 209 71 206 
3 114 217 210 
3 96 218 212 
3 81 79 213 
3 104 192 191 
3 216 87 193 
3 111 195 210 
3 93 196 218 
3 76 197 213 
